<mxfile host="app.diagrams.net" modified="2024-05-17T15:34:34.330Z" agent="Mozilla/5.0 (X11; Linux x86_64) AppleWebKit/537.36 (KHTML, like Gecko) Chrome/124.0.0.0 Safari/537.36" etag="5XafYrdbqtNX9GQ3K6t8" version="24.4.3" type="github">
  <diagram name="Page-1" id="m_Y108sSP7Lhg1sr7l5O">
    <mxGraphModel dx="1687" dy="-1175" grid="1" gridSize="10" guides="1" tooltips="1" connect="1" arrows="1" fold="1" page="1" pageScale="1" pageWidth="850" pageHeight="1100" math="0" shadow="0">
      <root>
        <mxCell id="0" />
        <mxCell id="1" parent="0" />
        <mxCell id="rde9NRw8se1_-Yis98rk-4" value="MVP1" style="whiteSpace=wrap;html=1;aspect=fixed;fillColor=none;fontSize=100;verticalAlign=top;dashed=1;strokeWidth=10;strokeColor=#FF8000;" vertex="1" parent="1">
          <mxGeometry x="2155" y="2270" width="1920" height="1920" as="geometry" />
        </mxCell>
        <mxCell id="rde9NRw8se1_-Yis98rk-1" value="NOW" style="whiteSpace=wrap;html=1;fillColor=none;fontSize=100;verticalAlign=top;strokeWidth=10;dashed=1;strokeColor=#CC0000;" vertex="1" parent="1">
          <mxGeometry x="90" y="2520" width="1600" height="1110" as="geometry" />
        </mxCell>
        <mxCell id="rde9NRw8se1_-Yis98rk-5" value="MVP2" style="whiteSpace=wrap;html=1;aspect=fixed;fillColor=none;fontSize=100;verticalAlign=top;strokeColor=#66CC00;dashed=1;strokeWidth=10;" vertex="1" parent="1">
          <mxGeometry x="4106.43" y="2290" width="1930" height="1930" as="geometry" />
        </mxCell>
        <mxCell id="lXu4Tp6JSbNR6ExN2YvM-1" value="&lt;span style=&quot;font-size: 18px; font-weight: 700; text-align: left;&quot;&gt;Importer&lt;/span&gt;" style="rounded=1;whiteSpace=wrap;html=1;sketch=1;curveFitting=1;jiggle=2;glass=0;shadow=0;fillColor=#e1d5e7;strokeColor=#9673a6;" parent="1" vertex="1">
          <mxGeometry x="5306.43" y="3505" width="160" height="120" as="geometry" />
        </mxCell>
        <mxCell id="lXu4Tp6JSbNR6ExN2YvM-6" value="" style="shape=flexArrow;endArrow=classic;html=1;rounded=0;fillColor=#e1d5e7;strokeColor=#9673a6;entryX=1;entryY=0.25;entryDx=0;entryDy=0;" parent="1" target="vU2HOrqAtmkLahMUNuxy-2" edge="1">
          <mxGeometry width="50" height="50" relative="1" as="geometry">
            <mxPoint x="5306.43" y="3525" as="sourcePoint" />
            <mxPoint x="5031.43" y="3530.21" as="targetPoint" />
          </mxGeometry>
        </mxCell>
        <mxCell id="lXu4Tp6JSbNR6ExN2YvM-7" value="produce&amp;nbsp;&lt;div style=&quot;font-size: 12px;&quot;&gt;storeMessageKafka&lt;/div&gt;" style="edgeLabel;html=1;align=center;verticalAlign=middle;resizable=0;points=[];fontSize=12;labelBackgroundColor=default;" parent="lXu4Tp6JSbNR6ExN2YvM-6" vertex="1" connectable="0">
          <mxGeometry x="0.2751" y="1" relative="1" as="geometry">
            <mxPoint x="55" y="23" as="offset" />
          </mxGeometry>
        </mxCell>
        <mxCell id="lXu4Tp6JSbNR6ExN2YvM-10" value="&lt;span style=&quot;font-size: 18px; font-weight: 700; text-align: left;&quot;&gt;Store (MVP1)&lt;/span&gt;&lt;div&gt;&lt;span style=&quot;font-size: 18px; font-weight: 700; text-align: left;&quot;&gt;&lt;br&gt;&lt;/span&gt;&lt;/div&gt;&lt;div style=&quot;text-align: left; font-size: 16px;&quot;&gt;&lt;font style=&quot;font-size: 16px;&quot;&gt;&lt;b&gt;API&lt;/b&gt;&lt;/font&gt;&lt;/div&gt;&lt;div style=&quot;text-align: left; font-size: 16px;&quot;&gt;&lt;font style=&quot;font-size: 16px;&quot;&gt;1.&amp;nbsp;&lt;span style=&quot;background-color: initial; text-align: center; text-wrap: nowrap;&quot;&gt;getNearestStores&lt;/span&gt;&lt;/font&gt;&lt;/div&gt;&lt;div style=&quot;text-align: left; font-size: 16px;&quot;&gt;&lt;font style=&quot;font-size: 16px;&quot;&gt;&lt;span style=&quot;&quot;&gt;2.&amp;nbsp;&lt;/span&gt;&lt;span style=&quot;background-color: initial; text-align: center; text-wrap: nowrap;&quot;&gt;getStore&lt;/span&gt;&lt;/font&gt;&lt;/div&gt;&lt;div style=&quot;text-align: left; font-size: 16px;&quot;&gt;&lt;font style=&quot;font-size: 16px;&quot;&gt;3.&amp;nbsp;&lt;span style=&quot;background-color: rgb(255, 255, 255); text-wrap: nowrap; text-align: center;&quot;&gt;getAllStoresSortedByTown&lt;/span&gt;&lt;/font&gt;&lt;/div&gt;&lt;div style=&quot;text-align: left; font-size: 16px;&quot;&gt;&lt;font style=&quot;font-size: 16px;&quot;&gt;&lt;span style=&quot;background-color: rgb(255, 255, 255); text-wrap: nowrap; text-align: center;&quot;&gt;4.&amp;nbsp;&lt;/span&gt;&lt;/font&gt;&lt;span style=&quot;background-color: rgb(255, 255, 255); text-wrap: nowrap; text-align: center;&quot;&gt;getStoresByNames&lt;/span&gt;&lt;/div&gt;&lt;div style=&quot;text-align: left; font-size: 16px;&quot;&gt;&lt;font style=&quot;font-size: 16px;&quot;&gt;&lt;span style=&quot;background-color: rgb(255, 255, 255); text-wrap: nowrap; text-align: center;&quot;&gt;&lt;br&gt;&lt;/span&gt;&lt;/font&gt;&lt;/div&gt;&lt;div style=&quot;text-align: left; font-size: 16px;&quot;&gt;&lt;font style=&quot;font-size: 16px;&quot;&gt;&lt;span style=&quot;background-color: rgb(255, 255, 255); text-wrap: nowrap; text-align: center;&quot;&gt;5. createStore&lt;/span&gt;&lt;/font&gt;&lt;/div&gt;&lt;div style=&quot;text-align: left; font-size: 16px;&quot;&gt;&lt;font style=&quot;font-size: 16px;&quot;&gt;&lt;span style=&quot;background-color: rgb(255, 255, 255); text-wrap: nowrap; text-align: center;&quot;&gt;6. updateStore&lt;/span&gt;&lt;/font&gt;&lt;/div&gt;&lt;div style=&quot;text-align: left; font-size: 16px;&quot;&gt;&lt;font style=&quot;font-size: 16px;&quot;&gt;&lt;span style=&quot;background-color: rgb(255, 255, 255); text-wrap: nowrap; text-align: center;&quot;&gt;7. deleteStore&lt;/span&gt;&lt;/font&gt;&lt;/div&gt;&lt;div style=&quot;text-align: left; font-size: 16px;&quot;&gt;&lt;font style=&quot;font-size: 16px;&quot;&gt;&lt;span style=&quot;background-color: rgb(255, 255, 255); text-wrap: nowrap; text-align: center;&quot;&gt;...&lt;/span&gt;&lt;/font&gt;&lt;span style=&quot;background-color: rgb(255, 255, 255); text-align: center; text-wrap: nowrap;&quot;&gt;&amp;nbsp;&lt;/span&gt;&lt;/div&gt;&lt;div style=&quot;text-align: left; font-size: 16px;&quot;&gt;&lt;font style=&quot;font-size: 16px;&quot;&gt;&lt;span style=&quot;background-color: rgb(255, 255, 255); text-wrap: nowrap; text-align: center;&quot;&gt;&lt;b&gt;Consumer&lt;/b&gt;&lt;/span&gt;&lt;/font&gt;&lt;/div&gt;&lt;div style=&quot;text-align: left; font-size: 16px;&quot;&gt;&lt;font style=&quot;font-size: 16px;&quot;&gt;&lt;span style=&quot;background-color: rgb(255, 255, 255); text-wrap: nowrap; text-align: center;&quot;&gt;- storeMessageKafka&lt;/span&gt;&lt;/font&gt;&lt;/div&gt;&lt;div style=&quot;text-align: left;&quot;&gt;&lt;font style=&quot;font-size: 16px;&quot;&gt;&lt;span style=&quot;background-color: rgb(255, 255, 255); text-wrap: nowrap; text-align: center;&quot;&gt;-&amp;nbsp;&lt;/span&gt;&lt;/font&gt;&lt;span style=&quot;background-color: initial; text-align: center; font-size: 16px; text-wrap: nowrap;&quot;&gt;impexGenLoadStore&amp;nbsp;&lt;/span&gt;&lt;/div&gt;&lt;div style=&quot;text-align: left;&quot;&gt;&lt;span style=&quot;background-color: initial; text-align: center; font-size: 16px; text-wrap: nowrap;&quot;&gt;&amp;nbsp; (call yCatalog API getStore)&lt;/span&gt;&lt;/div&gt;" style="rounded=1;whiteSpace=wrap;html=1;glass=0;shadow=0;fillColor=#d5e8d4;strokeColor=#82b366;fillStyle=dashed;verticalAlign=top;" parent="1" vertex="1">
          <mxGeometry x="4346.43" y="3327.5" width="400" height="322.5" as="geometry" />
        </mxCell>
        <mxCell id="lXu4Tp6JSbNR6ExN2YvM-11" value="" style="shape=flexArrow;endArrow=classic;html=1;rounded=0;fillColor=#e1d5e7;strokeColor=#9673a6;entryX=0.998;entryY=0.442;entryDx=0;entryDy=0;exitX=0;exitY=0.25;exitDx=0;exitDy=0;entryPerimeter=0;" parent="1" source="vU2HOrqAtmkLahMUNuxy-2" edge="1">
          <mxGeometry width="50" height="50" relative="1" as="geometry">
            <mxPoint x="4846.43" y="3606" as="sourcePoint" />
            <mxPoint x="4745.630000000001" y="3525.045" as="targetPoint" />
          </mxGeometry>
        </mxCell>
        <mxCell id="lXu4Tp6JSbNR6ExN2YvM-12" value="consume&amp;nbsp;&lt;div style=&quot;font-size: 12px;&quot;&gt;storeMessageKafka&lt;/div&gt;" style="edgeLabel;html=1;align=center;verticalAlign=middle;resizable=0;points=[];fontSize=12;labelBackgroundColor=default;" parent="1" vertex="1" connectable="0">
          <mxGeometry x="4856.43" y="3515" as="geometry">
            <mxPoint x="-33" y="34" as="offset" />
          </mxGeometry>
        </mxCell>
        <mxCell id="lXu4Tp6JSbNR6ExN2YvM-13" value="&lt;font style=&quot;font-size: 18px;&quot;&gt;&lt;b&gt;Google Geocoding API&lt;/b&gt;&lt;/font&gt;&lt;div&gt;&lt;font size=&quot;1&quot; style=&quot;&quot;&gt;&lt;span style=&quot;font-size: 16px;&quot;&gt;&amp;nbsp;&lt;/span&gt;&lt;/font&gt;&lt;/div&gt;&lt;div&gt;&lt;font size=&quot;1&quot; style=&quot;&quot;&gt;&lt;span style=&quot;font-size: 16px;&quot;&gt;- geocodeAddress&lt;/span&gt;&lt;/font&gt;&lt;/div&gt;" style="rounded=1;whiteSpace=wrap;html=1;fillColor=#ffe6cc;strokeColor=#d79b00;fillStyle=hatch;" parent="1" vertex="1">
          <mxGeometry x="4266.43" y="2650" width="156.75" height="120" as="geometry" />
        </mxCell>
        <mxCell id="lXu4Tp6JSbNR6ExN2YvM-15" value="BE-Nextgen" style="shape=umlFrame;whiteSpace=wrap;html=1;pointerEvents=0;width=150;height=40;strokeWidth=2;fillColor=#99CCFF;fontStyle=1;fontSize=20;" parent="1" vertex="1">
          <mxGeometry x="4226.43" y="3250" width="1280" height="520" as="geometry" />
        </mxCell>
        <mxCell id="lXu4Tp6JSbNR6ExN2YvM-16" value="3rd-parties" style="shape=umlFrame;whiteSpace=wrap;html=1;pointerEvents=0;width=137;height=40;strokeWidth=2;fillColor=#99CCFF;fontStyle=1;fontSize=20;" parent="1" vertex="1">
          <mxGeometry x="4226.43" y="2570" width="236.75" height="280" as="geometry" />
        </mxCell>
        <mxCell id="lXu4Tp6JSbNR6ExN2YvM-17" value="SAP Cloud Commerce" style="shape=umlFrame;whiteSpace=wrap;html=1;pointerEvents=0;width=257;height=40;strokeWidth=2;fillColor=#99CCFF;fontStyle=1;fontSize=20;" parent="1" vertex="1">
          <mxGeometry x="4543.18" y="2570" width="403.25" height="280" as="geometry" />
        </mxCell>
        <mxCell id="lXu4Tp6JSbNR6ExN2YvM-19" value="&lt;font style=&quot;font-size: 20px;&quot;&gt;Hybris&lt;/font&gt;" style="rounded=1;whiteSpace=wrap;html=1;fillStyle=cross-hatch;fillColor=#99FFFF;strokeColor=#6c8ebf;fontSize=18;fontStyle=1;verticalAlign=middle;" parent="1" vertex="1">
          <mxGeometry x="4583.18" y="2650" width="320" height="160" as="geometry" />
        </mxCell>
        <mxCell id="lXu4Tp6JSbNR6ExN2YvM-20" value="" style="shape=flexArrow;endArrow=classic;html=1;rounded=0;entryX=0.9;entryY=1.008;entryDx=0;entryDy=0;entryPerimeter=0;exitX=0.155;exitY=0.006;exitDx=0;exitDy=0;exitPerimeter=0;fillColor=#dae8fc;strokeColor=#6c8ebf;" parent="1" source="lXu4Tp6JSbNR6ExN2YvM-10" target="lXu4Tp6JSbNR6ExN2YvM-13" edge="1">
          <mxGeometry width="50" height="50" relative="1" as="geometry">
            <mxPoint x="4407.43" y="3330" as="sourcePoint" />
            <mxPoint x="4301.43" y="2810" as="targetPoint" />
          </mxGeometry>
        </mxCell>
        <mxCell id="lXu4Tp6JSbNR6ExN2YvM-21" value="geocodeAddress" style="edgeLabel;html=1;align=center;verticalAlign=middle;resizable=0;points=[];fontSize=12;" parent="1" vertex="1" connectable="0">
          <mxGeometry x="4376.43" y="2960" as="geometry">
            <mxPoint x="-33" y="34" as="offset" />
          </mxGeometry>
        </mxCell>
        <mxCell id="lXu4Tp6JSbNR6ExN2YvM-25" value="&lt;b&gt;ProxyPass&lt;/b&gt;" style="rhombus;whiteSpace=wrap;html=1;fillColor=#fff2cc;strokeColor=#d6b656;fillStyle=solid;" parent="1" vertex="1">
          <mxGeometry x="4423.18" y="2970" width="80" height="80" as="geometry" />
        </mxCell>
        <mxCell id="lXu4Tp6JSbNR6ExN2YvM-30" value="" style="shape=flexArrow;endArrow=classic;html=1;rounded=0;exitX=0.5;exitY=1;exitDx=0;exitDy=0;entryX=0.5;entryY=0;entryDx=0;entryDy=0;fillColor=#dae8fc;strokeColor=#6c8ebf;" parent="1" source="lXu4Tp6JSbNR6ExN2YvM-19" target="lXu4Tp6JSbNR6ExN2YvM-25" edge="1">
          <mxGeometry width="50" height="50" relative="1" as="geometry">
            <mxPoint x="4503.18" y="3020" as="sourcePoint" />
            <mxPoint x="4463.18" y="2960" as="targetPoint" />
            <Array as="points">
              <mxPoint x="4743.18" y="2890" />
              <mxPoint x="4463.18" y="2890" />
            </Array>
          </mxGeometry>
        </mxCell>
        <mxCell id="lXu4Tp6JSbNR6ExN2YvM-32" value="YES" style="text;html=1;align=center;verticalAlign=middle;resizable=0;points=[];autosize=1;strokeColor=none;fillColor=none;" parent="1" vertex="1">
          <mxGeometry x="4463.18" y="3040" width="50" height="30" as="geometry" />
        </mxCell>
        <mxCell id="lXu4Tp6JSbNR6ExN2YvM-33" value="NO" style="text;html=1;align=center;verticalAlign=middle;resizable=0;points=[];autosize=1;strokeColor=none;fillColor=none;" parent="1" vertex="1">
          <mxGeometry x="4503.18" y="2980" width="40" height="30" as="geometry" />
        </mxCell>
        <mxCell id="lXu4Tp6JSbNR6ExN2YvM-34" value="&lt;span style=&quot;color: rgb(0, 0, 0); font-family: Helvetica; font-size: 12px; font-style: normal; font-variant-ligatures: normal; font-variant-caps: normal; letter-spacing: normal; orphans: 2; text-align: center; text-indent: 0px; text-transform: none; widows: 2; word-spacing: 0px; -webkit-text-stroke-width: 0px; white-space: nowrap; background-color: rgb(255, 255, 255); text-decoration-thickness: initial; text-decoration-style: initial; text-decoration-color: initial; float: none; display: inline !important;&quot;&gt;&lt;b&gt;1.&amp;nbsp;getNearestStores&lt;/b&gt;&lt;/span&gt;&lt;div&gt;&lt;span style=&quot;color: rgb(0, 0, 0); font-family: Helvetica; font-size: 12px; font-style: normal; font-variant-ligatures: normal; font-variant-caps: normal; letter-spacing: normal; orphans: 2; text-align: center; text-indent: 0px; text-transform: none; widows: 2; word-spacing: 0px; -webkit-text-stroke-width: 0px; white-space: nowrap; background-color: rgb(255, 255, 255); text-decoration-thickness: initial; text-decoration-style: initial; text-decoration-color: initial; float: none; display: inline !important;&quot;&gt;&lt;b&gt;2. getStore&lt;/b&gt;&lt;/span&gt;&lt;/div&gt;&lt;div&gt;&lt;span style=&quot;color: rgb(0, 0, 0); font-family: Helvetica; font-size: 12px; font-style: normal; font-variant-ligatures: normal; font-variant-caps: normal; font-weight: 400; letter-spacing: normal; orphans: 2; text-align: center; text-indent: 0px; text-transform: none; widows: 2; word-spacing: 0px; -webkit-text-stroke-width: 0px; white-space: nowrap; background-color: rgb(255, 255, 255); text-decoration-thickness: initial; text-decoration-style: initial; text-decoration-color: initial; display: inline !important; float: none;&quot;&gt;3. getAllStoresSortedByTown&lt;/span&gt;&lt;/div&gt;" style="text;whiteSpace=wrap;html=1;" parent="1" vertex="1">
          <mxGeometry x="4523.43" y="2900" width="190" height="60" as="geometry" />
        </mxCell>
        <mxCell id="gKmI6yvuFESalika0xIr-2" value="Store locator component" style="whiteSpace=wrap;html=1;aspect=fixed;" parent="1" vertex="1">
          <mxGeometry x="5346.43" y="2540" width="120" height="120" as="geometry" />
        </mxCell>
        <mxCell id="gKmI6yvuFESalika0xIr-3" value="Frontend - SPA" style="shape=umlFrame;whiteSpace=wrap;html=1;pointerEvents=0;width=180;height=40;strokeWidth=2;fillColor=#99CCFF;fontStyle=1;fontSize=20;" parent="1" vertex="1">
          <mxGeometry x="5266.43" y="2460" width="280" height="560" as="geometry" />
        </mxCell>
        <mxCell id="gKmI6yvuFESalika0xIr-4" value="Store details component" style="whiteSpace=wrap;html=1;aspect=fixed;" parent="1" vertex="1">
          <mxGeometry x="5346.43" y="2700" width="120" height="120" as="geometry" />
        </mxCell>
        <mxCell id="gKmI6yvuFESalika0xIr-5" value="allStores component" style="whiteSpace=wrap;html=1;aspect=fixed;" parent="1" vertex="1">
          <mxGeometry x="5346.43" y="2860" width="120" height="120" as="geometry" />
        </mxCell>
        <mxCell id="gKmI6yvuFESalika0xIr-6" value="" style="shape=flexArrow;endArrow=classic;html=1;rounded=0;exitX=0;exitY=0.5;exitDx=0;exitDy=0;fillColor=#dae8fc;strokeColor=#6c8ebf;" parent="1" source="gKmI6yvuFESalika0xIr-2" target="lXu4Tp6JSbNR6ExN2YvM-19" edge="1">
          <mxGeometry width="50" height="50" relative="1" as="geometry">
            <mxPoint x="4776.43" y="2820" as="sourcePoint" />
            <mxPoint x="4826.43" y="2770" as="targetPoint" />
          </mxGeometry>
        </mxCell>
        <mxCell id="gKmI6yvuFESalika0xIr-7" value="" style="shape=flexArrow;endArrow=classic;html=1;rounded=0;exitX=0.008;exitY=0.342;exitDx=0;exitDy=0;entryX=1;entryY=0.5;entryDx=0;entryDy=0;exitPerimeter=0;fillColor=#dae8fc;strokeColor=#6c8ebf;" parent="1" source="gKmI6yvuFESalika0xIr-4" target="lXu4Tp6JSbNR6ExN2YvM-19" edge="1">
          <mxGeometry width="50" height="50" relative="1" as="geometry">
            <mxPoint x="4776.43" y="2820" as="sourcePoint" />
            <mxPoint x="4826.43" y="2770" as="targetPoint" />
          </mxGeometry>
        </mxCell>
        <mxCell id="gKmI6yvuFESalika0xIr-10" value="" style="shape=flexArrow;endArrow=classic;html=1;rounded=0;exitX=0;exitY=0.25;exitDx=0;exitDy=0;entryX=1;entryY=0.75;entryDx=0;entryDy=0;fillColor=#dae8fc;strokeColor=#6c8ebf;" parent="1" source="gKmI6yvuFESalika0xIr-5" target="lXu4Tp6JSbNR6ExN2YvM-19" edge="1">
          <mxGeometry width="50" height="50" relative="1" as="geometry">
            <mxPoint x="5066.43" y="2960" as="sourcePoint" />
            <mxPoint x="4876.43" y="2830" as="targetPoint" />
          </mxGeometry>
        </mxCell>
        <mxCell id="gKmI6yvuFESalika0xIr-11" value="&lt;b&gt;1.&amp;nbsp;&lt;/b&gt;&lt;b&gt;getNearestStores&lt;/b&gt;" style="text;html=1;align=center;verticalAlign=middle;resizable=0;points=[];autosize=1;strokeColor=none;fillColor=none;rotation=-15;" parent="1" vertex="1">
          <mxGeometry x="5016.43" y="2620" width="140" height="30" as="geometry" />
        </mxCell>
        <mxCell id="gKmI6yvuFESalika0xIr-12" value="&lt;b&gt;2. getStore&lt;/b&gt;" style="text;html=1;align=center;verticalAlign=middle;resizable=0;points=[];autosize=1;strokeColor=none;fillColor=none;" parent="1" vertex="1">
          <mxGeometry x="5031.43" y="2700" width="90" height="30" as="geometry" />
        </mxCell>
        <mxCell id="gKmI6yvuFESalika0xIr-13" value="&lt;b&gt;1. getStoreLocations &lt;/b&gt;(&lt;span style=&quot;background-color: rgb(255, 255, 255);&quot;&gt;3. getAllStoresSortedByTown)&lt;/span&gt;" style="text;html=1;align=center;verticalAlign=middle;resizable=0;points=[];autosize=1;strokeColor=none;fillColor=none;rotation=15;" parent="1" vertex="1">
          <mxGeometry x="4956.43" y="2790" width="310" height="30" as="geometry" />
        </mxCell>
        <mxCell id="gKmI6yvuFESalika0xIr-15" value="" style="shape=flexArrow;endArrow=classic;html=1;rounded=0;exitX=1;exitY=0.5;exitDx=0;exitDy=0;entryX=0.641;entryY=1;entryDx=0;entryDy=0;entryPerimeter=0;fillColor=#dae8fc;strokeColor=#6c8ebf;" parent="1" source="lXu4Tp6JSbNR6ExN2YvM-25" target="lXu4Tp6JSbNR6ExN2YvM-19" edge="1">
          <mxGeometry width="50" height="50" relative="1" as="geometry">
            <mxPoint x="4576.43" y="3050" as="sourcePoint" />
            <mxPoint x="4626.43" y="3000" as="targetPoint" />
            <Array as="points">
              <mxPoint x="4786.43" y="3010" />
            </Array>
          </mxGeometry>
        </mxCell>
        <mxCell id="gKmI6yvuFESalika0xIr-16" value="" style="shape=flexArrow;endArrow=classic;html=1;rounded=0;exitX=0.5;exitY=1;exitDx=0;exitDy=0;fillColor=#dae8fc;strokeColor=#6c8ebf;" parent="1" source="lXu4Tp6JSbNR6ExN2YvM-25" edge="1">
          <mxGeometry width="50" height="50" relative="1" as="geometry">
            <mxPoint x="4853.18" y="3080" as="sourcePoint" />
            <mxPoint x="4463.43" y="3330" as="targetPoint" />
          </mxGeometry>
        </mxCell>
        <mxCell id="gKmI6yvuFESalika0xIr-19" value="FE-Nextgen" style="shape=umlFrame;whiteSpace=wrap;html=1;pointerEvents=0;width=150;height=40;strokeWidth=2;fillColor=#99CCFF;fontStyle=1;fontSize=20;" parent="1" vertex="1">
          <mxGeometry x="4226.43" y="3890" width="560" height="240" as="geometry" />
        </mxCell>
        <mxCell id="gKmI6yvuFESalika0xIr-20" value="Nextgen" style="shape=umlFrame;whiteSpace=wrap;html=1;pointerEvents=0;width=150;height=40;strokeWidth=2;fillColor=#99CCFF;fontStyle=1;fontSize=20;" parent="1" vertex="1">
          <mxGeometry x="4186.43" y="3170" width="1360" height="1000" as="geometry" />
        </mxCell>
        <mxCell id="gKmI6yvuFESalika0xIr-21" value="&lt;span style=&quot;font-size: 18px; font-weight: 700; text-align: left;&quot;&gt;Nextgen Backoffice (MVP1)&lt;/span&gt;" style="rounded=1;whiteSpace=wrap;html=1;fillColor=#d5e8d4;strokeColor=#82b366;" parent="1" vertex="1">
          <mxGeometry x="4423.18" y="3970" width="203.25" height="120" as="geometry" />
        </mxCell>
        <mxCell id="gKmI6yvuFESalika0xIr-22" value="" style="shape=flexArrow;endArrow=classic;html=1;rounded=0;entryX=0.4;entryY=1;entryDx=0;entryDy=0;entryPerimeter=0;exitX=0.41;exitY=0.017;exitDx=0;exitDy=0;exitPerimeter=0;fillColor=#dae8fc;strokeColor=#6c8ebf;" parent="1" source="gKmI6yvuFESalika0xIr-21" target="lXu4Tp6JSbNR6ExN2YvM-10" edge="1">
          <mxGeometry width="50" height="50" relative="1" as="geometry">
            <mxPoint x="4506.43" y="4007" as="sourcePoint" />
            <mxPoint x="4736.43" y="3890" as="targetPoint" />
          </mxGeometry>
        </mxCell>
        <mxCell id="gKmI6yvuFESalika0xIr-23" value="&lt;font style=&quot;font-size: 12px;&quot;&gt;&lt;span style=&quot;background-color: rgb(255, 255, 255);&quot;&gt;1.&amp;nbsp;&lt;/span&gt;&lt;span style=&quot;text-align: center; background-color: rgb(255, 255, 255);&quot;&gt;createStore&lt;/span&gt;&lt;/font&gt;&lt;div style=&quot;&quot;&gt;&lt;font style=&quot;font-size: 12px;&quot;&gt;2.&amp;nbsp;&lt;span style=&quot;background-color: rgb(255, 255, 255); text-align: center;&quot;&gt;updateStore&lt;/span&gt;&lt;/font&gt;&lt;/div&gt;&lt;div style=&quot;&quot;&gt;&lt;font style=&quot;font-size: 12px;&quot;&gt;&lt;span style=&quot;background-color: rgb(255, 255, 255);&quot;&gt;3.&amp;nbsp;&lt;/span&gt;&lt;span style=&quot;background-color: rgb(255, 255, 255); text-align: center;&quot;&gt;deleteStore&lt;/span&gt;&lt;/font&gt;&lt;/div&gt;&lt;div style=&quot;&quot;&gt;&lt;font style=&quot;font-size: 12px;&quot;&gt;&lt;span style=&quot;background-color: rgb(255, 255, 255); text-align: center;&quot;&gt;...&lt;/span&gt;&lt;/font&gt;&lt;/div&gt;" style="text;html=1;align=left;verticalAlign=middle;resizable=0;points=[];autosize=1;strokeColor=none;fillColor=none;" parent="1" vertex="1">
          <mxGeometry x="4413.18" y="3800" width="100" height="70" as="geometry" />
        </mxCell>
        <mxCell id="gKmI6yvuFESalika0xIr-33" value="&lt;b&gt;&lt;font style=&quot;font-size: 18px;&quot;&gt;ImpexGen&lt;/font&gt;&lt;/b&gt;" style="rounded=1;whiteSpace=wrap;html=1;fillColor=#f8cecc;strokeColor=#b85450;fillStyle=cross-hatch;" parent="1" vertex="1">
          <mxGeometry x="5666.43" y="3327.5" width="160" height="120" as="geometry" />
        </mxCell>
        <mxCell id="gKmI6yvuFESalika0xIr-34" value="" style="shape=flexArrow;endArrow=classic;html=1;rounded=0;fillColor=#dae8fc;strokeColor=#6c8ebf;entryX=1;entryY=0.25;entryDx=0;entryDy=0;exitX=0;exitY=0.672;exitDx=0;exitDy=0;exitPerimeter=0;" parent="1" source="gKmI6yvuFESalika0xIr-33" target="lXu4Tp6JSbNR6ExN2YvM-10" edge="1">
          <mxGeometry width="50" height="50" relative="1" as="geometry">
            <mxPoint x="5646.43" y="3410" as="sourcePoint" />
            <mxPoint x="4746.43" y="3549.5" as="targetPoint" />
            <Array as="points">
              <mxPoint x="5106.43" y="3408" />
            </Array>
          </mxGeometry>
        </mxCell>
        <mxCell id="gKmI6yvuFESalika0xIr-36" value="&lt;span style=&quot;text-wrap: nowrap; text-align: center;&quot;&gt;4.&amp;nbsp;&lt;/span&gt;&lt;span style=&quot;text-wrap: nowrap; text-align: center; background-color: rgb(255, 255, 255);&quot;&gt;getStoresByNames (called ones for all the stores received in the load message)&lt;/span&gt;" style="text;whiteSpace=wrap;html=1;" parent="1" vertex="1">
          <mxGeometry x="4970" y="3415.62" width="450" height="20" as="geometry" />
        </mxCell>
        <mxCell id="gKmI6yvuFESalika0xIr-38" value="Microservices (Oldgen)" style="shape=umlFrame;whiteSpace=wrap;html=1;pointerEvents=0;width=250;height=40;strokeWidth=2;fillColor=#99CCFF;fontStyle=1;fontSize=20;" parent="1" vertex="1">
          <mxGeometry x="5626.43" y="3250" width="240" height="230" as="geometry" />
        </mxCell>
        <mxCell id="Ntl0kbFn95fuvxifZ92Q-25" value="" style="shape=image;verticalLabelPosition=bottom;labelBackgroundColor=default;verticalAlign=top;aspect=fixed;imageAspect=0;image=data:image/png,iVBORw0KGgoAAAANSUhEUgAAAZAAAAGQCAMAAAC3Ycb+AAACvlBMVEX////9/vzY68263KeXyXeGwWJzt0hts0Bssz5utEJ3uU+JwmedzIDA367f7tXY68yl0Yt7u1OEwF+w1pnh79j5/PfB4K+HwWORxnDN5sDC4LB8u1SKw2jT6cbX68vl8d36/fms1ZRutEG63Kbk8dyEwGD0+fC93qrV6si12aDc7dFxtkbs9efz+fBxtUWVyHax15vQ6MPr9Ob+//56u1KUyHO32qLX68ry+O9ttEB/vVmezYK+3qv1+vOHwWSl0YrK5Lvm8t52uE2LxGqw15rS6MXu9umXyXi22qLb7dDx+O6Dv174+/ap04/J5Lvp8+J1uEyTx3Kv1pjU6cjv9ura7M/1+vJvtUOAvluiz4bC4LHk8duAvlqPxW2VyHWo0o7O58G22qH9/v3c7tKr1JLq9ON5ulG12Z/s9eWPxW602Z/W6sq93arw9+t8vFWczH6Zy3yFwGH0+fFwtUTO5sChz4bG4rV2uEz7/fp0t0qYynh4uU+u1paNxGvM5b6326N5ulCay33Z7M7y+O6by36ay3ut1ZR9vFek0Im/3qy426Sm0Yz2+vOIwmXV6smDv19ytkbL5b2t1ZXG4rbo8+BytkeOxWygzoTT6MX2+vT+/v6dzYHt9eh7u1TH47fx9+2UyHTd7tK526SfzoPN5r/i8Nn3+/X5/PjK5bzP58Pj8Nqu1Zf8/ft3uU602J6x15qp05DP58Lv9+uq05F1uEuczH+j0IiCv12Mw2miz4eSx3HE4bOz2J3r9OSn0o3J5Ll+vVj6/PiZynq83and7dN/vVrD4bLn8t+QxW7B36/n8uDp9OLg7tbo8+Ht9unZ7M2+3qy73Ke526V6ulHw9+y73aiWyXbe7dSBvlzS6MSq1JGYynmQxm+Tx3N+vFeezYHF4rTU6cey2J2Cvl3I47jg79es1JOhzoWy2Jy/363mr9GjAAASp0lEQVR4nO3d+aNW0xoH8BN12qdJpTTcVKKUJgkNpEQTRcaoTGkihYqGi0o0pzKLuEKRSpK4l0zdUpQ04Jpn7v0v7jmdc3LO2c/a71rPWms/a5++n1+9e+29nqXzvnvvZz1PXh4AAAAAAAAAAAAAAAAAAAAAAAAAAAAAAAAAAAAAAAAAAAAAAAAAAAAAAAAAAAAAAAAAAAAAAAAAAAAAAAAAeFDlmGOrVsuvHqWooEbNWrXrSE88TMfVrZfmUpRV//gG0rMPTcMTGkmtRrHGTaRDEJSmf5NdjiLNTpSOQjCaN5NejGJVW0hHIggtT5JeiCNanSwdjACc0lp6Gcqq2kY6HtKatJJeg/LqHeW/gU+VXoCY6m2lYyKpnXT4KUfxitSWjj3tNOm4SGkuHXmF9h2kIyOjYyfpyKvUlw6NjM7ScVc7XTo2ErpIRz3JGdLRSV/XM6WDnuQs6fCk72zpmCfrJh2ftHXvIR3yZD2lA5S2c6Qjnsu50hFKVwPpeOfUqZd0jFJ1nnS8c+stHaM09ZGOto7zpaOUnip9pYOt4wLpMKXnQulY6+knHae09JeOtKYzu0pHKiUDpCOta6B0pNIxSDrO2lpdJB2rVFwsHWd9taRjlYam0lE2cRSkmA7Olw6yiUbS4fJviHSMzVwiHS/fLpWOsKGhLaUj5tll0hE2dbl0xPy6Qjq+5q6UjplXAWw7MFVVOmY+hZc5quEq6aj5c/Uw6eByXCMdNn+ulY4tz3DpuPkyQjqyTPkNpSPnib+dayOvu76ZxzyvG6Qj58eNnsI18qYGowqHH3zz6PaezhCNkY6dD6PG+gnWuCpHTjG+lp9TRLcIxs2bW72EqvqEcie5zctJKuUmnol+SmYMqnAaT3c6kyrf29zbvQSqduw8d3g5T1TpNkzX8RKmO+MnmuxnG9CUq9OPmVd3egnTVOJMN3g5U3RX6iHz6m4vQZo2nTiVn3+LUTQi9aB51HKGlxjNpM41/e9ezhU1SztoPt3jJ0b3kCe718/JovtSDppHHTyFaBZ5Nk+/s6LZo1IOmz++9tvSmYVzPJ0tGpdy2Ly531eEbiJP5+tfSNRjbsqB86WnrwilvCDRAykHzhObVMVJD86bN2e+6r+aLcj8BWcvXLR4pMXVRJWidtMS/kPxOc0Pf4+O6qZ4imuyIEtvLPlOfsjiV9iy1KLm0WLu7JeXyRpcQa6qwYI8XOYD47hXFEWP+I1VGh7lzn3ppWWHafEY8RH9BVlU7hNth3IvqhIkMj7OnPoTFX71U7tKtBdkToWP9Ge/TT7JT5TS8yRz4u1iI/WOf0h3Qdo/VfEzK59mXlf0jPsYpanrKt60n40P9Vy8XKbugswjPvUw78KyXpZmEWvS1Z+kxvpH7HO6C0L+WuVWvznOYXhS14aVqljwPDnY6tgHNRek72Dyc8yKj5lOZHyBM+Me9HrkvRj7pOaCEO8VDxvOubpMl6V5iTPfAlVR0HgJOssFYa5I+zUuYiOC1YJCmWwefwSjuSCz16qGjP8V1JHZsjQvc2b7inK4+Mty3S/1dcoxX+VcYlbL0qzfwJhrwh/o+GYf3QXZqB70AcY1ZjWR8TXGVDeph7sk/mndBamR8K6PVbnrdcvQiNjMmOi96uFWEreY2o9O3lCP22YL4zrPtIyNiJnm8xy6RD3cm8Tn9R8u9lEPfJr5dUbRarvYSODMU3EDUmQr9XmDx+8L1UMfy7jSVtlr/PKW+SzPVg7W4W3yAJMXVP9crxz9X+aXGj1tHaCUvWM+R/UXyBWK+ihGr3AbKcuHs95pvmQfozQNNv+qLFDu0F+oOsTsnfoWZV8QThn6jJWlecN8hsq9ru8qDzHNOlH+WuWkcr3sIEyp2WY+v7dVY72nPsY4Deh9xTl6MfYwbKAyvUPF+Jp8VDFU0t5287ysFYqzcB4zZqgszQTz2alu0UcnHcRIlOuiOA9n/8pmJ8FKwwfGc5vxIT3SxsSjOJmLinsdzq6SjxyFy7vt5nOL7xU8LMc+H86CtB9Pn4pTu7bijtNALZliPLOx9Ej/znEYK7d3B32HyPgdEl3sKmR+kU85ktGVDSfnqpfJS7Z+kL7sJ8wvO9rpKmY+fWw+r1X0SLtyHcfMft9NHjbe/LqjfMVXX1AYSYH0/2i583S42xE+IY/j5M4lvL8Jxevms+pbhRpIIymYuyD0335W9ahP3UXOj5WMEjPxtNEi9XMfyN6wQ7/O4OxTaOwscp5wUv27UwOdq3EgfwcV+SDzFca1h16W5iJGv/rbqYEm6+Q88heELjXKqYE2yV3wfOAkcTSnBiJy3eMs9hiSj+LVz5UTbHcYPuf2MCZE/ubdq3WoxYKQrzP0zlrBsJDL0nByasiHpnrFnGx24R5DHUq/Kc5hq8MAOvYsZz5UUZcxeofaLMhS6lDlu8lEp7iMoUstOd3wRlIjaW4UtdqnTj0Z/IwxgYR3a9JYibLUpr0lmttKrBaELCXE60DaxGUU3bmSNZl9xEifax5rV8mBer/Eq9Q5NsyyNFU5c9nSkhhpmebBdgtCPSBgpTEGWpaGV2KGukPTbiVttyBUy3TW12ChEPvrXcOayX5ipJN0D7YsPkPlujEykosE2F9vN28m1G8d7fowlgtyOnHwAd40oj1Og+nA4OWseeQT+/XO1z7ackHqEwc3Z00jilq7Dae9hHS2JI8TQ+kXp7atl0W8zOjO7TlDlDqQxHoKFNGNID7SPtp2QajaPhqvYUhbwkpk3MWcBvF6e/1B7aNtF+Ra4uhzONMo8qrbiNo5kTsLok6FwZtU2wWh/vDzi2l1cBtTK8oifLlsi4/1vv7RtgtScCh+NOsB6WHXOw6qhS+4c+hLJK1dqH+4dRFM4hm8Rbf3mx2Hla0hVe1NC1X0wiCe1gtCfIVZFH0O5qkvs6xOoS+J0QzqcVgvyMPxo5/ibJMu8ZXbuLK1Zs+A+Jmz1iCPyHpBiPyKlf8xn0apQN4dMnJHS42Oj3aoh/7h1gtC7TPlFoksNDSMzFLu45+ILN7ewuBw6wV5izg8XrhOXxhJWhYz+Dw+mskbCesFqUHcXts0yzrecWhZ1nCK/pQ4NT7c1waHWy/IUKKSlk3D3iASS21aDBH7QkySta0XZBiRUsrZJ1KKuq9KHVE2SRuRHWCyiZ9u6GLwN6c68aTAZkGCSIafZXH9lgtCv8o+S38A5wsSQg3Zbyyu/+74cFMNDqeLHxqUvWlPvAu3WhBVZYI02UyASFR+yODwatT1HDJ4xTSNuHGw+VIPYtMhK/unBPEry+g3AtVW+xGD4w8SX8JWDXpC6ND6rcX1E9Upje77qS1+Sw2Opx5ucqpnHXGh6+gyfGlx/cSjk7kmL7VbxbMPV5ic/ztiPuxOFkUWEQOmjd34odAL8eGqGNXliLXfvMioGBlx/lE7zKZQ3gk+Imxok8X1f0+MZ7b1skKpvavNnjwTf2GW5KpWkCiElki8/ORiVGaU4a+2zmV/uX71g9nB78RPr7k1RSGEp4smv2oqyicaSZi2HKlx6uSSI8cY74cgXrruMx2jnBD27jATxot9HB+vn/EgG37c3e/+FV90LjA9sNPk+Ol/Mj59GUGU2mCVhi71c3y8zdzcQXPUtjaDHIu4MN6q32IxA+KFCDt30Nx7xNmt7gsTSpqn6BeLGSwgxmN3ojRGVWC0eKUeRS/6jrWWryxmELuPKNTEJiQmehB5clcavNKPGdbLe7C1TOJPYTlRQ30yozwHC/V/Q1ubAUMpwjjQYg7diPGsniYZoGrNt7MZkPiJIqK78e/Nv1DvmGz6fZvYS5z7e4vxPvAcZ33z+JO4jBiOU1KIgfrRO9jmwUkfz2HWZzENsgcdqzGUMar0YluL8cjXZUKYLRqLUF1Wj7MIi7ZOsY7FefwOuUWC2vfJaN9SgtrUlmf1CFwTdQuU9yt/vB/9RtjQVex51KOGs/gXp43K2NHfABzTY67nEBviVOouRhVjr1KDHxlN5H4ni5QmupKnHF7lmSKLqeH4W050kS2L+H95D670G19zl3OnQqZfjvL9T+QOag6sZsrFwms1uX6a07n8xo+NFiJlkeq2qyuhI6YYdo4vnTJejR0cHVTZtLwP+bdTxIs2ebxqbIXIjh6/s4OjgS67wGj1V4L8CS1Ou8xVRUPI4fh/P3LrR57xYu5wnRJaxkqi2tXqmELdM+dVIboRO0Lfw/HTG6j3niHozn25Q+/zsNkJlGgDsW8qj1+vJfrBZ1Ct5O74QctvSQ7HLzuSjK64kKu/khpZKz0IXesxp0T/E8m7nh2jJIrW29dxx6PSL0PBavhQ6DEiYa5QS4uXw0pv0pfOzwwIYRubEqcnShHyviAvbxujJWoO1Iv0Iuz7HiKDPyDsx6X96fGs0iIpk8hfdIa7GMrKp38hBGMBc15UGZoijJZWSQ4qeoTzHy+HsIktyRruH5kJigHv40aK0vdSxVm0SwVXFH5vyduYM1PWTzfZlptDvTMU5zApsFIe2aknLD2ZU/tGNeA+V9nX1SaqTsFOJ1Z0DQ0KtxRxdJVqxBGG23AUBii/fvl3oEQyangMKimUM1tZKKSjTfpaqT+UF8x+Khq95iWArrGrFpL984pZ7dooMky9+2869/lCtIFsURqeN7gTbKoeswunx+Bf7qXb3x5Wiz0qtZ0hRA3Zb95+Vw/a5gV23MjKdUfotBSlkX3FgnQ3d4obknoC/szdSzOzRcKoFps817mOmz/sdJqaSaNOP5aznbF+YoWe/rw2G0XOcRszr/iPTp9OHPe5Tab3JCOTH20M5v+iLiD2GoVLv+VERURt47LGv6vfPCGKln2eo+beBezrjA64i1YKJlZnT/TWHEOvGa77jP/BnNlr/ARYuoVvwFiNl4vlThnYc3nuBJHG26liWuXx/x2rElfCtd4iF5TaSVNRnVmd1S0AVj2wM+G+4whmR7bDbrENUOrYb3wi3T6Ncwed3Pu82eUzXTqtajy69rqGWsdblQjQWfDA1LSYbo5v9jKmjxl0308nb393yE37t7//dZ3N2kno0y+zWQ9ym1Hg1tlM+E/fV/ecQVeMuE50Ukbg/rSZ8q6ke3Z7e0x+PMct9HpxvrSx2L4eRZMSnmtZ62O1HNEOj5fm02q7aRNVlh1hNX4vg2o5ngmW6dKL/ZS2H8NNHiulypAJH7u9YYll1IZQW4+wW5iVUuSQZQE7X7aU872th/ivo0rNc31NKfrUevaN3PYbGM5sYF/GtLCa3hpyUB3uBkWyIUMDbv5FWYG1hTa0hv/+54jH9rv5cu/f2/5a6HLxWeKk9tXI3fbpHR3HWZWsPqKOg6CIGukkDL/+ZFcpof8v7G305SWkKmWERbPfcnbs52cJrhsyxdFVtCJa8mRNZ0exiPLrsjKbW061ee9RQa7XmVkw3l04opoHHjU8+/PzXO6unq1K0c+U4x1GJIp2LSLr+FDW7pt3p9NzR1N9xik104e6jUrUenGfnO/Lq/y+83bnW0bDKO1uz0Nln+o9/xx44jaqgGZeXvcWl5w+0y4VWOH8lAPnja/KPmMvmLNp9c4buw0asW7dupeO6fbi7o11v13q5n6DQHR/zyhvRTJSNUyxgTeL7B+xBoDogplZc6WD6cB86SA65auOTIpU+7Yzaqx0PG0F0bveIW5ZmmDkzhTOGIvE/xBQXXez7RTpkFqZkclUxWRbpYNqI/QSMxy93Ne+Sk34JWY4+PuPxWWgxAyHj4J9qRggHTlPHpIOLJe7RKTApNUPzzGi63olYZ/IKGGon5zvIIyWDi5HH+moebTWOvM8fSF1w3Nvp3R4zWWoxAwHv8uTkOTiK9nnvDKyZwWBdcNz71vpEJtZJB0v7zZLh9hIva7S8fLvv9JBNkF16q1sRm2QjrK+ELvhuWe5az9NScUaK5Gl0nHWVVc6UinhV5JO1/JAu+G594R0qPX8TzpOqeloVZYmLT2lw5SiRdLB1hFuNzwP2PXv03OWdIxS1UU63LmRLZMrr8el452LopFfpbVXOuA5zMh0iRmOutIhT5btEjMcg4NOZGwtHR4BC6WDniTzJWY4lklHXS1LrUHc+UQ67ErT9GqVVzq7pQOv4qP2Ziaw27n55a9gcPCcFN1zbbV0VCQtkI5+3BfSMZF1q3T8K+ojHRFpKxzULXXnV58tADJizHfSq/CXrcqG0keV2t4KKpl5K2uNvryZ+Ecr6cWIohoDj7oHvAn2bhL+VzL/gN+WPtnTvfYusdXoNGBFJd62xteiaa30HzgWNLvr5WekZx6uzyb8Nmtju9RsXL1iX0fpOQMAAAAAAAAAAAAAAAAAAAAAAAAAAAAAAAAAAAAAAAAAAAAAAAAAAAAAAAAAAAAAAAAAAAAAAAAAAAAAAABUWv8HF/WkH1Nv95EAAAAASUVORK5CYII=;" parent="1" vertex="1">
          <mxGeometry x="4363.18" y="3340" width="60" height="60" as="geometry" />
        </mxCell>
        <mxCell id="Ntl0kbFn95fuvxifZ92Q-26" value="" style="shape=cylinder;whiteSpace=wrap;html=1;boundedLbl=1;backgroundOutline=1;" parent="1" vertex="1">
          <mxGeometry x="4686.43" y="3580" width="40" height="50" as="geometry" />
        </mxCell>
        <mxCell id="vU2HOrqAtmkLahMUNuxy-2" value="" style="shape=image;verticalLabelPosition=bottom;labelBackgroundColor=default;verticalAlign=top;aspect=fixed;imageAspect=0;image=data:image/png,iVBORw0KGgoAAAANSUhEUgAAAdoAAAIEBAMAAABMFvJeAAAAG1BMVEVHcEwAAAAAAAAAAAAAAAAAAAAAAAAAAAAAAABp4cHsAAAACHRSTlMA4huBQ6hlyvu+waIAAA9cSURBVHja7J3Lc+PGEYfxJOdIleMyjpR2neKRNu0sjly7toKjbG+lcGRclQqOOqRSPEIvCn92VtELILrngRly2Y3pI7Ur6ptHd8/Mb3qCwJs3b968efPmzZs3b968efPmzZs3b968efPmzZs3b968efPmzZs3b968efPmbbx2MR8LafQha77Y9U9jgP1n82qX3FmTrGnZLW/YuOnaPeuebZoR4TZ9u2MLmwO0zRVT2LABbTzjmO9YFghts2QIO8FgWfpltGtZdi4Oy3DmSrq2aditiDIZbc08Qe7a9ZgGctNsRjSQuQ3lRA7LLOTuD+SzjHOyXHTQPn/5JCr5roQ6ZOunz865TtwEzBMXTCfutMV1A/c4UyfV+jjtD29mTqpGojAjN7VFRqxg6aaw/fIInM7ELUK7sGR4bDBBnZFguAxK0UAzZRiCQjSJSBjSCnwHijVtjdPOR0C75Uw72/9Rzi911KJdjop2M4J5W47KS2WcaW9GEIFCPPdnmF3g2XDKkDZGxyvHNVAr998LQRXHTUd0i4LliTW2kzpluS9VInuLFUtaAR8KJDxPcNu755dvHxc8zwom4BnIVEuLEF1cEHZTr/lUoiEiSn54aovPVN3Ul6k730s5UCdVdc98KU7cL/bNarV3OL+WJyW00o9Uobto5PkmNVwF7I2qZ2nhFnLaK6322dFb4moOZFCVP2MxlG90W2dNhHYho13qNg6Vc0+ZGu5Bv20uKSYYCpUjfVV+auCjJIpX8p1bm7g0KjM31pZiS8XMVNxyoTs2eajyNS+MxMYpNZmxfB2YDWRCR5+h1jRko8pfaHSUSpVP6FThXO1glar8OR3cuLdlI3fd/1flVzRXQo/2r5cRudTw3GtgSNASgMq9DTdVvryLprD7zajutMtpBex9yary5bSYKr8kqsqX026RUENVlS+nRRd3RE+2dWlrbH18y4Y24abKl9Km3NRGUlp2qnwprZYqf86PtsbXvWOgpalTt6dd8qOdeVq2tCOft6R9cq2gZaHKf/e6pPt2bZRLEVTlT7aKAztOefJHZfGhmM8aKFef8EVsVPmljioI3aIgtneRa53fZjxU+Qu9I0psz5GWKl9TZZIgyqKE1gmu5IxyBzqpbidWpM4KpLLOS8yRzYFZSyAApXpaihwRg01olfbcaqkL+gPgYd1vq5N3UkJLew4KV++1VPlUXNRbfynl+ESclNBBmGjCnvy0zdQMdaQJe/LnmTpD9LpsmAzkonFod+R9lIld0vdR+nbyiVRpjGSiyj8xi4xhlymnYPuPL8n++1IWYkqqXdvzyC/ruyTDr0IlZPWre3/wXxQTeifb6Dh1h7wvOG+HyyjDL/wQfcZBSK51TfChGmvdCTvxabtWeLC3n+up8k962t4oJnV7f+2c4PWJyOQOW9cJfU/v2lOqUI3LGmNCToItFA9sCGnXf3r22vcbErAdJwX51IkinEbvVqtfAipWqtK+jNOrBcqXYgRXWqUbo15ALFGzMHqRIlWP0y2fKlOhegHDqKaWUCdDgict8k+mfJ6qE+p9h5jPq4sLtcONWNLuNEIycdpC49os1YvEfcs9radlQVuNinahscBhGYFuRxVvsVxqwofWME9es6cVfFYFGuvbBZ8Vn8beRcmH1mxf6oE4baA8WI8plpXVoIV9EKv9ZOVZQc6JtlBUnoxUsoro4oJOXBKKoSykR7TJb08/+C8R4KlC7SQ9zG5Ng/+QC0FAPE0lx+8TgtV15VK2rmTqeo6Ept4PCexe9Ds3xMsjxyRrJwtJWfoILxgc0awmnEouoOa43K0kWpQUlypKqvQLqsWT95k+B7Lue2qOiGzZ81433f/5+PGvspLBBdmy55DW+FqqPZ8nhGvab41vShSEa9o7vTNyT3EoD7eTd8ulS9qTj7mh086llmCAXRZzudqm46fW3ZUw6Zr2WjcvF0xu8qk7d72/h9WqaX9Grqa93qVawHn//vj5R2I17YWen82Q6Kq6nUAq5tbYGn7z8gNiNe0netkg+romsbMxoZcMpkgiQa2mfa5X0oFLTXvJfVt4fYiNjZoCbZTp3DJlU9MewpVUwK6xmUClpn0JJg+I715jbo5MTftPQPWojjGraf/vty76UboW5lXTvlaEZV/T3te0Z0+75Ec787S+pr33yeRoxxBvQzz3J51L+befmK2BlLQRur6lVtNehzZAtdlEC0XIabc8atpr0lYsatrr0iI3iBJVBRiatCGHmva6exddTcocmLW0AtALzu1c5ZTfYk1Mq87hG6tSPZ/3dyW/p6ZkhToJThP2jsceVh+o1bQHcl1UPa8U19DsWczjKGBviPknhXp+QVwv9Wya6vmUxUDWVs9zGMiJtgZXKsBZ0qDVV88nlPXJKoR7/YYhk1qYqOcT6j5KVsf/Vr9piHStMFLPT2jP2sBQcixIO2TjjGFLOWlUZINLLRdOphyGuXoeEN7PicCq3uyClkLnBAv4g07nWks9353r12Rg9/Srm8eP/q5WzydbmqWVof0KHfX8ry817deEYBNQPS900obo/epvFwEpEyzU80NoETe05kNbMVHP61nGRD1v6pJ5nEDrrm1rLA7fsqGNuSlHdJd72j+ha+zU85rhlomaT5O2xmPTGGi3nGln+FJwPSrape9bZvO29D6ZC+3NCOLtuHKp6ajy5HGtgSJ03zhn8xSfzhYFx72LoBnVvpTGnuOMDy2ynxxTVc/r09Zg13I6K0jAY1jB6RUKxE29gsUUFRValvfPnT8Rq342cOI+8q5+ICqpMM0diVYtHDxx6Qr6dI2Jel7TeKjn3QzlmhutmYaVVTpFVIdrYMVofJQ85F4HDK3CaGccaZPxzFpJhrHhSQuXJr1hCgtqsu8DttbPH0k81jXUztlnUZLefZgHvK2tnt8F/O3ds2v+dh2MwqKL1U8XgTdv3rx58+bNmzdv3rx58+bNmzdv3rx58+bNmzdv3rx58+bNmzdvAy16v1r9fDUO1k/Z6QiW/1g92+Ywvz/tyrMnL1+3Wn+NQXbgCy3ne2J08VUL9kSHlcaf70vvQ8a0aTMm2mZMtGJUtM2YaKejoi1GRduMiTYeFa0YFW0BXbVmS9t+MOb2z4s5b1rw5jFX2ggsIcaVNgYruHClTcEbm1xpQ3CfgCutAF+k4E+7HBXt3NOypQ08LSHax6OOX+bHo43+6uZlrCG0z0cdzfWPR6GNPjSuXj0zp23vEcu+3xVt+9G73WFo20hXnf+QQxVayi6ZwEuJIbQCq4sYlVC9haElixHaAqtLUoIFafJunSWBFyVCaLECawlcyGlohRiYNsG6toRf/bSlFUhpkAgpCuOWFikWDFaTunVAWyLltDNkRrilRQZWiNXNsqTFnvCrsOp6TmmRrk3Quo2WtDnctVP0+W+ntEjXlmjhRjvaBKmdhxVhu3JKi3TtFC/KaUeLBAC0WOTOKW0Gdy1ezHBmRwt3raRW5NohbQp3raQu566yoRVw11aSmqcOaUvTrm0aq75FyiLKyoC6o03gcKCopzucVhgPpeHV9vq0BRwOqkPRNuZDyR1thET65kC0U9MA4JRWwF0rrGmRNRDiJYrj0CKRfj+z+G61+jmT1prVW98iAaA3lL5Z9SrmO6BFwsHeYuT2aZnZLn43kLaAu3ZvIH9++vSda1qka0OkNHJhSZsgXbtA6kOWTmlDZBVfNMiKt7Cjxd4SyrBimKVLWsRndKbRnWQzw5QWYUqwxt2fUla0mM9I8ML8iQ0tEgA6E2dv523qjhZ7zimU1DMXFrRY7daFpKhr6Yo20Xiqq18seDit0JgetWyH14q2wL5E9u2dzjWj3WIjRlqvt3REi05O6XMayVDaFBsxSXePT9K6FrTo03KJ/NdvB9KWWNdO5c93uKFFezCWv7kghtEmqDMQ8pdZche0Av0lim+fDKNFvUTLf9zLT5iG017hrkHIplFnaBnQbnBnUMqv7SQOaP9o0LOkQnFpqBhCm+OTM1M8VuKAVuL1c8W3iyG0Ej+velCpcknbOyXNFNXqUzva2pRWuKS9NP32xI4W/5t2h6eV5IbYGxNWtL2ujVV3C2OHtJc4DKYEyGxoA2PayCHtgF+eW9D2nxadKrUgDmlr/N/UB6Dty03UShSHtA/mtAsb2htz2syhT97oKVFc0TY47foItPWRaWco7fxgtBna2Iemvf0KtFeYHkyDthhA+7HBoI4xkmclFlYP45M36NQ5hk+eoatYNW1pt759+Aq0AdbY6uxi0Gp+ikWBVDVzIhe0OdbYysxx2L4U1rrHyJNnbX+5gWEeHK6Blu09cuTXIbSh4x3WGlnfqtraiDZWnvXcH2zF1909R/aJ1u72Lpbt1t0ZracLJ7QpsuyrsEhssy+1xPcyG0V64ejUC9mIWygmUjaQNkGmzla+DxY5okUaW8gnUjT4jK+E/V8lb93QEe0EbuxQPpFCF+e3G7B1H6RZue3ZfAb24qSRxvvCxdl8DR8GzA92DtT9njX4+3fybzelzcFRk0pPvWJntIlShicdyMa0oUqs+yAdyLYKohLkqmSNXdropeAoINu1Cg6jDrsEJ1IjOYOyU4fBDXgnOeFzqfy7AydSr3NzV8q/GibaSLrWmraCGruzezVHlmeDaAPwjCLFjy4WTmlDsLEzbBspstQ5wlEgQolix2pssFUXmBiutKWNla0ru1rhUnu+RrYKX4NuVNpqWDtgiCtqfsdg7Wnhxt6Derpn/Mlen4xEgb1bDE/3fKMfnKuxkVQi3/+es7OsaVzQJuAUafS+z54WbGyhp3wfQAsnNEdS2nfWALLGdkYLitLSY9G2tW2mjT2EFo4CR6O1aOxBtBUUBcSxaCMwk9hKvrSyog01okD3mMwlbdtvzHUae2dHC0cBydSpndIKw8ae5Xa0BRQFJvj3zZ3SwsJFfOYGlrQpGAXQwXTnuEpABa6mS2xg2dIieyMY7aVj2ino9bSrBBjTCnCbD7m5uHNdAQJpbN0KEMa0E3g9WTWI5tQx7aJRjfDOn2dL214IzQN51KsD57QpsnjP4XzCmhaOAkGUwZIUx7QBtjOTg1pma1rsJlIP995OiXB99mzd47vFy8dnWY0dDDSvFZCql3/8XYv29Re0//v09dPu7tpvZ8gPSkhs9PpHG9Ka2+R/7dOxDYAwDEVBF5mBOgpiIASLZP+Gwk0WwEjoboGnL9nLM23xvmMZe0e9dubVXr2mt8/sfbE1jVHc6wEAAAAAAAAAAADwAw+hh8fD0S1SKwAAAABJRU5ErkJggg==;" parent="1" vertex="1">
          <mxGeometry x="4945.610000000001" y="3502.5" width="85.82" height="93.42" as="geometry" />
        </mxCell>
        <mxCell id="O0EzowQMlojxF98ODf6e-18" value="" style="shape=flexArrow;endArrow=classic;html=1;rounded=0;fillColor=#e1d5e7;strokeColor=#9673a6;exitX=-0.006;exitY=0.871;exitDx=0;exitDy=0;exitPerimeter=0;" parent="1" source="vU2HOrqAtmkLahMUNuxy-2" edge="1">
          <mxGeometry width="50" height="50" relative="1" as="geometry">
            <mxPoint x="5236.43" y="3655" as="sourcePoint" />
            <mxPoint x="4746.43" y="3584" as="targetPoint" />
          </mxGeometry>
        </mxCell>
        <mxCell id="O0EzowQMlojxF98ODf6e-19" value="produce ack" style="text;html=1;align=center;verticalAlign=middle;resizable=0;points=[];autosize=1;strokeColor=none;fillColor=none;labelBackgroundColor=default;" parent="1" vertex="1">
          <mxGeometry x="4798.530000000001" y="3585" width="90" height="30" as="geometry" />
        </mxCell>
        <mxCell id="O0EzowQMlojxF98ODf6e-20" value="" style="shape=flexArrow;endArrow=classic;html=1;rounded=0;entryX=0.988;entryY=0.872;entryDx=0;entryDy=0;entryPerimeter=0;fillColor=#e1d5e7;strokeColor=#9673a6;exitX=0;exitY=0.675;exitDx=0;exitDy=0;exitPerimeter=0;" parent="1" source="lXu4Tp6JSbNR6ExN2YvM-1" target="vU2HOrqAtmkLahMUNuxy-2" edge="1">
          <mxGeometry width="50" height="50" relative="1" as="geometry">
            <mxPoint x="5306.43" y="3572" as="sourcePoint" />
            <mxPoint x="5236.43" y="3655" as="targetPoint" />
          </mxGeometry>
        </mxCell>
        <mxCell id="O0EzowQMlojxF98ODf6e-21" value="consume ack" style="text;html=1;align=center;verticalAlign=middle;resizable=0;points=[];autosize=1;strokeColor=none;fillColor=none;labelBackgroundColor=default;" parent="1" vertex="1">
          <mxGeometry x="5136.43" y="3585" width="90" height="30" as="geometry" />
        </mxCell>
        <mxCell id="rde9NRw8se1_-Yis98rk-72" value="&lt;font style=&quot;font-size: 18px;&quot;&gt;&lt;b&gt;Google Geocoding API&lt;/b&gt;&lt;/font&gt;&lt;div&gt;&lt;font size=&quot;1&quot; style=&quot;&quot;&gt;&lt;span style=&quot;font-size: 16px;&quot;&gt;&amp;nbsp;&lt;/span&gt;&lt;/font&gt;&lt;/div&gt;&lt;div&gt;&lt;font size=&quot;1&quot; style=&quot;&quot;&gt;&lt;span style=&quot;font-size: 16px;&quot;&gt;- geocodeAddress&lt;/span&gt;&lt;/font&gt;&lt;/div&gt;" style="rounded=1;whiteSpace=wrap;html=1;fillColor=#ffe6cc;strokeColor=#d79b00;fillStyle=hatch;" vertex="1" parent="1">
          <mxGeometry x="240.00000000000045" y="2860" width="156.75" height="120" as="geometry" />
        </mxCell>
        <mxCell id="rde9NRw8se1_-Yis98rk-74" value="3rd-parties" style="shape=umlFrame;whiteSpace=wrap;html=1;pointerEvents=0;width=137;height=40;strokeWidth=2;fillColor=#99CCFF;fontStyle=1;fontSize=20;" vertex="1" parent="1">
          <mxGeometry x="200.00000000000045" y="2780" width="236.75" height="280" as="geometry" />
        </mxCell>
        <mxCell id="rde9NRw8se1_-Yis98rk-75" value="SAP Cloud Commerce" style="shape=umlFrame;whiteSpace=wrap;html=1;pointerEvents=0;width=257;height=40;strokeWidth=2;fillColor=#99CCFF;fontStyle=1;fontSize=20;" vertex="1" parent="1">
          <mxGeometry x="516.7500000000005" y="2780" width="403.25" height="280" as="geometry" />
        </mxCell>
        <mxCell id="rde9NRw8se1_-Yis98rk-76" value="&lt;font style=&quot;font-size: 20px;&quot;&gt;Hybris&lt;/font&gt;" style="rounded=1;whiteSpace=wrap;html=1;fillStyle=cross-hatch;fillColor=#99FFFF;strokeColor=#6c8ebf;fontSize=18;fontStyle=1;verticalAlign=middle;" vertex="1" parent="1">
          <mxGeometry x="556.7500000000005" y="2860" width="320" height="160" as="geometry" />
        </mxCell>
        <mxCell id="rde9NRw8se1_-Yis98rk-77" value="" style="shape=flexArrow;endArrow=classic;html=1;rounded=0;entryX=0.75;entryY=1;entryDx=0;entryDy=0;exitX=0.25;exitY=1;exitDx=0;exitDy=0;fillColor=#dae8fc;strokeColor=#6c8ebf;" edge="1" parent="1" source="rde9NRw8se1_-Yis98rk-76" target="rde9NRw8se1_-Yis98rk-72">
          <mxGeometry width="50" height="50" relative="1" as="geometry">
            <mxPoint x="382.00000000000045" y="3539.4349999999995" as="sourcePoint" />
            <mxPoint x="275.00000000000045" y="3020" as="targetPoint" />
            <Array as="points">
              <mxPoint x="637" y="3120" />
              <mxPoint x="360" y="3120" />
            </Array>
          </mxGeometry>
        </mxCell>
        <mxCell id="rde9NRw8se1_-Yis98rk-78" value="geocodeAddress" style="edgeLabel;html=1;align=center;verticalAlign=middle;resizable=0;points=[];fontSize=12;" vertex="1" connectable="0" parent="1">
          <mxGeometry x="516.7500000000005" y="3070" as="geometry">
            <mxPoint x="-33" y="34" as="offset" />
          </mxGeometry>
        </mxCell>
        <mxCell id="rde9NRw8se1_-Yis98rk-84" value="Store locator component" style="whiteSpace=wrap;html=1;aspect=fixed;" vertex="1" parent="1">
          <mxGeometry x="1320.0000000000005" y="2750" width="120" height="120" as="geometry" />
        </mxCell>
        <mxCell id="rde9NRw8se1_-Yis98rk-85" value="Frontend - SPA" style="shape=umlFrame;whiteSpace=wrap;html=1;pointerEvents=0;width=180;height=40;strokeWidth=2;fillColor=#99CCFF;fontStyle=1;fontSize=20;" vertex="1" parent="1">
          <mxGeometry x="1240.0000000000005" y="2670" width="280" height="560" as="geometry" />
        </mxCell>
        <mxCell id="rde9NRw8se1_-Yis98rk-86" value="Store details component" style="whiteSpace=wrap;html=1;aspect=fixed;" vertex="1" parent="1">
          <mxGeometry x="1320.0000000000005" y="2910" width="120" height="120" as="geometry" />
        </mxCell>
        <mxCell id="rde9NRw8se1_-Yis98rk-87" value="allStores component" style="whiteSpace=wrap;html=1;aspect=fixed;" vertex="1" parent="1">
          <mxGeometry x="1320.0000000000005" y="3070" width="120" height="120" as="geometry" />
        </mxCell>
        <mxCell id="rde9NRw8se1_-Yis98rk-88" value="" style="shape=flexArrow;endArrow=classic;html=1;rounded=0;exitX=0;exitY=0.5;exitDx=0;exitDy=0;fillColor=#dae8fc;strokeColor=#6c8ebf;" edge="1" parent="1" source="rde9NRw8se1_-Yis98rk-84" target="rde9NRw8se1_-Yis98rk-76">
          <mxGeometry width="50" height="50" relative="1" as="geometry">
            <mxPoint x="750.0000000000005" y="3030" as="sourcePoint" />
            <mxPoint x="800.0000000000005" y="2980" as="targetPoint" />
          </mxGeometry>
        </mxCell>
        <mxCell id="rde9NRw8se1_-Yis98rk-89" value="" style="shape=flexArrow;endArrow=classic;html=1;rounded=0;exitX=0.008;exitY=0.342;exitDx=0;exitDy=0;entryX=1;entryY=0.5;entryDx=0;entryDy=0;exitPerimeter=0;fillColor=#dae8fc;strokeColor=#6c8ebf;" edge="1" parent="1" source="rde9NRw8se1_-Yis98rk-86" target="rde9NRw8se1_-Yis98rk-76">
          <mxGeometry width="50" height="50" relative="1" as="geometry">
            <mxPoint x="750.0000000000005" y="3030" as="sourcePoint" />
            <mxPoint x="800.0000000000005" y="2980" as="targetPoint" />
          </mxGeometry>
        </mxCell>
        <mxCell id="rde9NRw8se1_-Yis98rk-90" value="" style="shape=flexArrow;endArrow=classic;html=1;rounded=0;exitX=0;exitY=0.25;exitDx=0;exitDy=0;entryX=1;entryY=0.75;entryDx=0;entryDy=0;fillColor=#dae8fc;strokeColor=#6c8ebf;" edge="1" parent="1" source="rde9NRw8se1_-Yis98rk-87" target="rde9NRw8se1_-Yis98rk-76">
          <mxGeometry width="50" height="50" relative="1" as="geometry">
            <mxPoint x="1040.0000000000005" y="3170" as="sourcePoint" />
            <mxPoint x="850.0000000000005" y="3040" as="targetPoint" />
          </mxGeometry>
        </mxCell>
        <mxCell id="rde9NRw8se1_-Yis98rk-91" value="&lt;b&gt;1.&amp;nbsp;&lt;/b&gt;&lt;b&gt;getNearestStores&lt;/b&gt;" style="text;html=1;align=center;verticalAlign=middle;resizable=0;points=[];autosize=1;strokeColor=none;fillColor=none;rotation=-15;" vertex="1" parent="1">
          <mxGeometry x="990.0000000000005" y="2830" width="140" height="30" as="geometry" />
        </mxCell>
        <mxCell id="rde9NRw8se1_-Yis98rk-92" value="&lt;b&gt;2. getStore&lt;/b&gt;" style="text;html=1;align=center;verticalAlign=middle;resizable=0;points=[];autosize=1;strokeColor=none;fillColor=none;" vertex="1" parent="1">
          <mxGeometry x="1005.0000000000005" y="2910" width="90" height="30" as="geometry" />
        </mxCell>
        <mxCell id="rde9NRw8se1_-Yis98rk-93" value="&lt;b&gt;1. getStoreLocations &lt;/b&gt;(&lt;span style=&quot;background-color: rgb(255, 255, 255);&quot;&gt;3. getAllStoresSortedByTown)&lt;/span&gt;" style="text;html=1;align=center;verticalAlign=middle;resizable=0;points=[];autosize=1;strokeColor=none;fillColor=none;rotation=15;" vertex="1" parent="1">
          <mxGeometry x="930.0000000000005" y="3000" width="310" height="30" as="geometry" />
        </mxCell>
        <mxCell id="rde9NRw8se1_-Yis98rk-101" value="&lt;b&gt;&lt;font style=&quot;font-size: 18px;&quot;&gt;ImpexGen&lt;/font&gt;&lt;/b&gt;" style="rounded=1;whiteSpace=wrap;html=1;fillColor=#f8cecc;strokeColor=#b85450;fillStyle=cross-hatch;" vertex="1" parent="1">
          <mxGeometry x="520.0000000000005" y="3350.62" width="160" height="120" as="geometry" />
        </mxCell>
        <mxCell id="rde9NRw8se1_-Yis98rk-103" value="&lt;font style=&quot;font-size: 12px;&quot;&gt;&lt;span style=&quot;text-align: center; text-wrap: nowrap; background-color: rgb(255, 255, 255);&quot;&gt;getStoreByName (called for each store in the load message))&lt;/span&gt;&lt;/font&gt;" style="text;whiteSpace=wrap;html=1;" vertex="1" parent="1">
          <mxGeometry x="870" y="3360" width="330" height="20" as="geometry" />
        </mxCell>
        <mxCell id="rde9NRw8se1_-Yis98rk-104" value="Microservices (Oldgen)" style="shape=umlFrame;whiteSpace=wrap;html=1;pointerEvents=0;width=250;height=40;strokeWidth=2;fillColor=#99CCFF;fontStyle=1;fontSize=20;" vertex="1" parent="1">
          <mxGeometry x="480" y="3271.16" width="1040" height="240" as="geometry" />
        </mxCell>
        <mxCell id="rde9NRw8se1_-Yis98rk-112" value="&lt;b&gt;&lt;font style=&quot;font-size: 17px;&quot;&gt;yCatalog&lt;/font&gt;&lt;/b&gt;" style="rounded=1;whiteSpace=wrap;html=1;fillColor=#f8cecc;strokeColor=#b85450;fillStyle=cross-hatch;sketch=1;curveFitting=1;jiggle=2;" vertex="1" parent="1">
          <mxGeometry x="1320.0000000000005" y="3350.62" width="160" height="120" as="geometry" />
        </mxCell>
        <mxCell id="rde9NRw8se1_-Yis98rk-114" value="&lt;div style=&quot;text-align: left;&quot;&gt;&lt;br&gt;&lt;/div&gt;" style="shape=cylinder3;whiteSpace=wrap;html=1;boundedLbl=1;backgroundOutline=1;size=15;rotation=-90;fillColor=#ffe6cc;fillStyle=solid;strokeColor=#d79b00;" vertex="1" parent="1">
          <mxGeometry x="963.2500000000003" y="3402.04" width="41.16" height="77.15" as="geometry" />
        </mxCell>
        <mxCell id="rde9NRw8se1_-Yis98rk-115" value="" style="shape=flexArrow;endArrow=classic;html=1;rounded=0;exitX=0;exitY=0.75;exitDx=0;exitDy=0;entryX=0.5;entryY=1;entryDx=0;entryDy=0;entryPerimeter=0;fillColor=#e1d5e7;strokeColor=#9673a6;" edge="1" parent="1" source="rde9NRw8se1_-Yis98rk-112" target="rde9NRw8se1_-Yis98rk-114">
          <mxGeometry width="50" height="50" relative="1" as="geometry">
            <mxPoint x="1273.2500000000005" y="3820.62" as="sourcePoint" />
            <mxPoint x="1323.2500000000005" y="3770.62" as="targetPoint" />
          </mxGeometry>
        </mxCell>
        <mxCell id="rde9NRw8se1_-Yis98rk-123" value="produce loadStoresMessage" style="text;html=1;align=center;verticalAlign=middle;resizable=0;points=[];autosize=1;strokeColor=none;fillColor=none;" vertex="1" parent="1">
          <mxGeometry x="1066.5000000000005" y="3410.62" width="180" height="30" as="geometry" />
        </mxCell>
        <mxCell id="rde9NRw8se1_-Yis98rk-306" value="&lt;span style=&quot;font-size: 18px; font-weight: 700; text-align: left;&quot;&gt;Store (MVP1)&lt;/span&gt;&lt;div&gt;&lt;span style=&quot;font-size: 18px; font-weight: 700; text-align: left;&quot;&gt;&lt;br&gt;&lt;/span&gt;&lt;/div&gt;&lt;div style=&quot;text-align: left; font-size: 16px;&quot;&gt;&lt;font style=&quot;font-size: 16px;&quot;&gt;&lt;b&gt;API&lt;/b&gt;&lt;/font&gt;&lt;/div&gt;&lt;div style=&quot;text-align: left; font-size: 16px;&quot;&gt;&lt;font style=&quot;font-size: 16px;&quot;&gt;1.&amp;nbsp;&lt;span style=&quot;background-color: initial; text-align: center; text-wrap: nowrap;&quot;&gt;getNearestStores&lt;/span&gt;&lt;/font&gt;&lt;/div&gt;&lt;div style=&quot;text-align: left; font-size: 16px;&quot;&gt;&lt;font style=&quot;font-size: 16px;&quot;&gt;&lt;span style=&quot;&quot;&gt;2.&amp;nbsp;&lt;/span&gt;&lt;span style=&quot;background-color: initial; text-align: center; text-wrap: nowrap;&quot;&gt;getStore&lt;/span&gt;&lt;/font&gt;&lt;/div&gt;&lt;div style=&quot;text-align: left; font-size: 16px;&quot;&gt;&lt;font style=&quot;font-size: 16px;&quot;&gt;3.&amp;nbsp;&lt;span style=&quot;background-color: rgb(255, 255, 255); text-wrap: nowrap; text-align: center;&quot;&gt;getAllStoresSortedByTown&lt;/span&gt;&lt;/font&gt;&lt;/div&gt;&lt;div style=&quot;text-align: left; font-size: 16px;&quot;&gt;&lt;font style=&quot;font-size: 16px;&quot;&gt;&lt;span style=&quot;background-color: rgb(255, 255, 255); text-wrap: nowrap; text-align: center;&quot;&gt;4.&amp;nbsp;&lt;/span&gt;&lt;/font&gt;&lt;span style=&quot;background-color: rgb(255, 255, 255); text-wrap: nowrap; text-align: center;&quot;&gt;getStoresByNames&lt;/span&gt;&lt;/div&gt;&lt;div style=&quot;text-align: left; font-size: 16px;&quot;&gt;&lt;font style=&quot;font-size: 16px;&quot;&gt;&lt;span style=&quot;background-color: rgb(255, 255, 255); text-wrap: nowrap; text-align: center;&quot;&gt;&lt;br&gt;&lt;/span&gt;&lt;/font&gt;&lt;/div&gt;&lt;div style=&quot;text-align: left; font-size: 16px;&quot;&gt;&lt;font style=&quot;font-size: 16px;&quot;&gt;&lt;span style=&quot;background-color: rgb(255, 255, 255); text-wrap: nowrap; text-align: center;&quot;&gt;5. createStore&lt;/span&gt;&lt;/font&gt;&lt;/div&gt;&lt;div style=&quot;text-align: left; font-size: 16px;&quot;&gt;&lt;font style=&quot;font-size: 16px;&quot;&gt;&lt;span style=&quot;background-color: rgb(255, 255, 255); text-wrap: nowrap; text-align: center;&quot;&gt;6. updateStore&lt;/span&gt;&lt;/font&gt;&lt;/div&gt;&lt;div style=&quot;text-align: left; font-size: 16px;&quot;&gt;&lt;font style=&quot;font-size: 16px;&quot;&gt;&lt;span style=&quot;background-color: rgb(255, 255, 255); text-wrap: nowrap; text-align: center;&quot;&gt;7. deleteStore&lt;/span&gt;&lt;/font&gt;&lt;/div&gt;&lt;div style=&quot;text-align: left; font-size: 16px;&quot;&gt;&lt;font style=&quot;font-size: 16px;&quot;&gt;&lt;span style=&quot;background-color: rgb(255, 255, 255); text-wrap: nowrap; text-align: center;&quot;&gt;...&lt;/span&gt;&lt;/font&gt;&lt;span style=&quot;background-color: rgb(255, 255, 255); text-align: center; text-wrap: nowrap;&quot;&gt;&amp;nbsp;&lt;/span&gt;&lt;/div&gt;&lt;div style=&quot;text-align: left; font-size: 16px;&quot;&gt;&lt;font style=&quot;font-size: 16px;&quot;&gt;&lt;span style=&quot;background-color: rgb(255, 255, 255); text-wrap: nowrap; text-align: center;&quot;&gt;&lt;b&gt;Consumer&lt;/b&gt;&lt;/span&gt;&lt;/font&gt;&lt;/div&gt;&lt;div style=&quot;text-align: left; font-size: 16px;&quot;&gt;&lt;font style=&quot;font-size: 16px;&quot;&gt;&lt;span style=&quot;background-color: rgb(255, 255, 255); text-wrap: nowrap; text-align: center;&quot;&gt;- storeMessageKafka&lt;/span&gt;&lt;/font&gt;&lt;/div&gt;&lt;div style=&quot;text-align: left;&quot;&gt;&lt;font style=&quot;font-size: 16px;&quot;&gt;&lt;span style=&quot;background-color: rgb(255, 255, 255); text-wrap: nowrap; text-align: center;&quot;&gt;-&amp;nbsp;&lt;/span&gt;&lt;/font&gt;&lt;span style=&quot;background-color: initial; text-align: center; font-size: 16px; text-wrap: nowrap;&quot;&gt;impexGenLoadStore&amp;nbsp;&lt;/span&gt;&lt;/div&gt;&lt;div style=&quot;text-align: left;&quot;&gt;&lt;span style=&quot;background-color: initial; text-align: center; font-size: 16px; text-wrap: nowrap;&quot;&gt;&amp;nbsp; (call yCatalog API getStore)&lt;/span&gt;&lt;/div&gt;" style="rounded=1;whiteSpace=wrap;html=1;glass=0;shadow=0;fillColor=#d5e8d4;strokeColor=#82b366;fillStyle=dashed;verticalAlign=top;" vertex="1" parent="1">
          <mxGeometry x="2350.0000000000005" y="3307.5" width="400" height="322.5" as="geometry" />
        </mxCell>
        <mxCell id="rde9NRw8se1_-Yis98rk-309" value="&lt;font style=&quot;font-size: 18px;&quot;&gt;&lt;b&gt;Google Geocoding API&lt;/b&gt;&lt;/font&gt;&lt;div&gt;&lt;font size=&quot;1&quot; style=&quot;&quot;&gt;&lt;span style=&quot;font-size: 16px;&quot;&gt;&amp;nbsp;&lt;/span&gt;&lt;/font&gt;&lt;/div&gt;&lt;div&gt;&lt;font size=&quot;1&quot; style=&quot;&quot;&gt;&lt;span style=&quot;font-size: 16px;&quot;&gt;- geocodeAddress&lt;/span&gt;&lt;/font&gt;&lt;/div&gt;" style="rounded=1;whiteSpace=wrap;html=1;fillColor=#ffe6cc;strokeColor=#d79b00;fillStyle=hatch;" vertex="1" parent="1">
          <mxGeometry x="2270.0000000000005" y="2630" width="156.75" height="120" as="geometry" />
        </mxCell>
        <mxCell id="rde9NRw8se1_-Yis98rk-310" value="BE-Nextgen" style="shape=umlFrame;whiteSpace=wrap;html=1;pointerEvents=0;width=150;height=40;strokeWidth=2;fillColor=#99CCFF;fontStyle=1;fontSize=20;" vertex="1" parent="1">
          <mxGeometry x="2230.0000000000005" y="3230" width="1280" height="520" as="geometry" />
        </mxCell>
        <mxCell id="rde9NRw8se1_-Yis98rk-311" value="3rd-parties" style="shape=umlFrame;whiteSpace=wrap;html=1;pointerEvents=0;width=137;height=40;strokeWidth=2;fillColor=#99CCFF;fontStyle=1;fontSize=20;" vertex="1" parent="1">
          <mxGeometry x="2230.0000000000005" y="2550" width="236.75" height="280" as="geometry" />
        </mxCell>
        <mxCell id="rde9NRw8se1_-Yis98rk-312" value="SAP Cloud Commerce" style="shape=umlFrame;whiteSpace=wrap;html=1;pointerEvents=0;width=257;height=40;strokeWidth=2;fillColor=#99CCFF;fontStyle=1;fontSize=20;" vertex="1" parent="1">
          <mxGeometry x="2546.7500000000005" y="2550" width="403.25" height="280" as="geometry" />
        </mxCell>
        <mxCell id="rde9NRw8se1_-Yis98rk-313" value="&lt;font style=&quot;font-size: 20px;&quot;&gt;Hybris&lt;/font&gt;" style="rounded=1;whiteSpace=wrap;html=1;fillStyle=cross-hatch;fillColor=#99FFFF;strokeColor=#6c8ebf;fontSize=18;fontStyle=1;verticalAlign=middle;" vertex="1" parent="1">
          <mxGeometry x="2586.7500000000005" y="2630" width="320" height="160" as="geometry" />
        </mxCell>
        <mxCell id="rde9NRw8se1_-Yis98rk-314" value="" style="shape=flexArrow;endArrow=classic;html=1;rounded=0;entryX=0.9;entryY=1.008;entryDx=0;entryDy=0;entryPerimeter=0;exitX=0.155;exitY=0.006;exitDx=0;exitDy=0;exitPerimeter=0;fillColor=#dae8fc;strokeColor=#6c8ebf;" edge="1" parent="1" source="rde9NRw8se1_-Yis98rk-306" target="rde9NRw8se1_-Yis98rk-309">
          <mxGeometry width="50" height="50" relative="1" as="geometry">
            <mxPoint x="2411.0000000000005" y="3310" as="sourcePoint" />
            <mxPoint x="2305.0000000000005" y="2790" as="targetPoint" />
          </mxGeometry>
        </mxCell>
        <mxCell id="rde9NRw8se1_-Yis98rk-315" value="geocodeAddress" style="edgeLabel;html=1;align=center;verticalAlign=middle;resizable=0;points=[];fontSize=12;" vertex="1" connectable="0" parent="1">
          <mxGeometry x="2380.0000000000005" y="2940" as="geometry">
            <mxPoint x="-33" y="34" as="offset" />
          </mxGeometry>
        </mxCell>
        <mxCell id="rde9NRw8se1_-Yis98rk-316" value="&lt;b&gt;ProxyPass&lt;/b&gt;" style="rhombus;whiteSpace=wrap;html=1;fillColor=#fff2cc;strokeColor=#d6b656;fillStyle=solid;" vertex="1" parent="1">
          <mxGeometry x="2426.7500000000005" y="2950" width="80" height="80" as="geometry" />
        </mxCell>
        <mxCell id="rde9NRw8se1_-Yis98rk-317" value="" style="shape=flexArrow;endArrow=classic;html=1;rounded=0;exitX=0.5;exitY=1;exitDx=0;exitDy=0;entryX=0.5;entryY=0;entryDx=0;entryDy=0;fillColor=#dae8fc;strokeColor=#6c8ebf;" edge="1" parent="1" source="rde9NRw8se1_-Yis98rk-313" target="rde9NRw8se1_-Yis98rk-316">
          <mxGeometry width="50" height="50" relative="1" as="geometry">
            <mxPoint x="2506.7500000000005" y="3000" as="sourcePoint" />
            <mxPoint x="2466.7500000000005" y="2940" as="targetPoint" />
            <Array as="points">
              <mxPoint x="2746.7500000000005" y="2870" />
              <mxPoint x="2466.7500000000005" y="2870" />
            </Array>
          </mxGeometry>
        </mxCell>
        <mxCell id="rde9NRw8se1_-Yis98rk-318" value="YES" style="text;html=1;align=center;verticalAlign=middle;resizable=0;points=[];autosize=1;strokeColor=none;fillColor=none;" vertex="1" parent="1">
          <mxGeometry x="2466.7500000000005" y="3020" width="50" height="30" as="geometry" />
        </mxCell>
        <mxCell id="rde9NRw8se1_-Yis98rk-319" value="NO" style="text;html=1;align=center;verticalAlign=middle;resizable=0;points=[];autosize=1;strokeColor=none;fillColor=none;" vertex="1" parent="1">
          <mxGeometry x="2506.7500000000005" y="2960" width="40" height="30" as="geometry" />
        </mxCell>
        <mxCell id="rde9NRw8se1_-Yis98rk-320" value="&lt;span style=&quot;color: rgb(0, 0, 0); font-family: Helvetica; font-size: 12px; font-style: normal; font-variant-ligatures: normal; font-variant-caps: normal; letter-spacing: normal; orphans: 2; text-align: center; text-indent: 0px; text-transform: none; widows: 2; word-spacing: 0px; -webkit-text-stroke-width: 0px; white-space: nowrap; background-color: rgb(255, 255, 255); text-decoration-thickness: initial; text-decoration-style: initial; text-decoration-color: initial; float: none; display: inline !important;&quot;&gt;&lt;b&gt;1.&amp;nbsp;getNearestStores&lt;/b&gt;&lt;/span&gt;&lt;div&gt;&lt;span style=&quot;color: rgb(0, 0, 0); font-family: Helvetica; font-size: 12px; font-style: normal; font-variant-ligatures: normal; font-variant-caps: normal; letter-spacing: normal; orphans: 2; text-align: center; text-indent: 0px; text-transform: none; widows: 2; word-spacing: 0px; -webkit-text-stroke-width: 0px; white-space: nowrap; background-color: rgb(255, 255, 255); text-decoration-thickness: initial; text-decoration-style: initial; text-decoration-color: initial; float: none; display: inline !important;&quot;&gt;&lt;b&gt;2. getStore&lt;/b&gt;&lt;/span&gt;&lt;/div&gt;&lt;div&gt;&lt;span style=&quot;color: rgb(0, 0, 0); font-family: Helvetica; font-size: 12px; font-style: normal; font-variant-ligatures: normal; font-variant-caps: normal; font-weight: 400; letter-spacing: normal; orphans: 2; text-align: center; text-indent: 0px; text-transform: none; widows: 2; word-spacing: 0px; -webkit-text-stroke-width: 0px; white-space: nowrap; background-color: rgb(255, 255, 255); text-decoration-thickness: initial; text-decoration-style: initial; text-decoration-color: initial; display: inline !important; float: none;&quot;&gt;3. getAllStoresSortedByTown&lt;/span&gt;&lt;/div&gt;" style="text;whiteSpace=wrap;html=1;" vertex="1" parent="1">
          <mxGeometry x="2527.0000000000005" y="2880" width="190" height="60" as="geometry" />
        </mxCell>
        <mxCell id="rde9NRw8se1_-Yis98rk-321" value="Store locator component" style="whiteSpace=wrap;html=1;aspect=fixed;" vertex="1" parent="1">
          <mxGeometry x="3350.0000000000005" y="2520" width="120" height="120" as="geometry" />
        </mxCell>
        <mxCell id="rde9NRw8se1_-Yis98rk-322" value="Frontend - SPA" style="shape=umlFrame;whiteSpace=wrap;html=1;pointerEvents=0;width=180;height=40;strokeWidth=2;fillColor=#99CCFF;fontStyle=1;fontSize=20;" vertex="1" parent="1">
          <mxGeometry x="3270.0000000000005" y="2440" width="280" height="560" as="geometry" />
        </mxCell>
        <mxCell id="rde9NRw8se1_-Yis98rk-323" value="Store details component" style="whiteSpace=wrap;html=1;aspect=fixed;" vertex="1" parent="1">
          <mxGeometry x="3350.0000000000005" y="2680" width="120" height="120" as="geometry" />
        </mxCell>
        <mxCell id="rde9NRw8se1_-Yis98rk-324" value="allStores component" style="whiteSpace=wrap;html=1;aspect=fixed;" vertex="1" parent="1">
          <mxGeometry x="3350.0000000000005" y="2840" width="120" height="120" as="geometry" />
        </mxCell>
        <mxCell id="rde9NRw8se1_-Yis98rk-325" value="" style="shape=flexArrow;endArrow=classic;html=1;rounded=0;exitX=0;exitY=0.5;exitDx=0;exitDy=0;fillColor=#dae8fc;strokeColor=#6c8ebf;" edge="1" parent="1" source="rde9NRw8se1_-Yis98rk-321" target="rde9NRw8se1_-Yis98rk-313">
          <mxGeometry width="50" height="50" relative="1" as="geometry">
            <mxPoint x="2780.0000000000005" y="2800" as="sourcePoint" />
            <mxPoint x="2830.0000000000005" y="2750" as="targetPoint" />
          </mxGeometry>
        </mxCell>
        <mxCell id="rde9NRw8se1_-Yis98rk-326" value="" style="shape=flexArrow;endArrow=classic;html=1;rounded=0;exitX=0.008;exitY=0.342;exitDx=0;exitDy=0;entryX=1;entryY=0.5;entryDx=0;entryDy=0;exitPerimeter=0;fillColor=#dae8fc;strokeColor=#6c8ebf;" edge="1" parent="1" source="rde9NRw8se1_-Yis98rk-323" target="rde9NRw8se1_-Yis98rk-313">
          <mxGeometry width="50" height="50" relative="1" as="geometry">
            <mxPoint x="2780.0000000000005" y="2800" as="sourcePoint" />
            <mxPoint x="2830.0000000000005" y="2750" as="targetPoint" />
          </mxGeometry>
        </mxCell>
        <mxCell id="rde9NRw8se1_-Yis98rk-327" value="" style="shape=flexArrow;endArrow=classic;html=1;rounded=0;exitX=0;exitY=0.25;exitDx=0;exitDy=0;entryX=1;entryY=0.75;entryDx=0;entryDy=0;fillColor=#dae8fc;strokeColor=#6c8ebf;" edge="1" parent="1" source="rde9NRw8se1_-Yis98rk-324" target="rde9NRw8se1_-Yis98rk-313">
          <mxGeometry width="50" height="50" relative="1" as="geometry">
            <mxPoint x="3070.0000000000005" y="2940" as="sourcePoint" />
            <mxPoint x="2880.0000000000005" y="2810" as="targetPoint" />
          </mxGeometry>
        </mxCell>
        <mxCell id="rde9NRw8se1_-Yis98rk-328" value="&lt;b&gt;1.&amp;nbsp;&lt;/b&gt;&lt;b&gt;getNearestStores&lt;/b&gt;" style="text;html=1;align=center;verticalAlign=middle;resizable=0;points=[];autosize=1;strokeColor=none;fillColor=none;rotation=-15;" vertex="1" parent="1">
          <mxGeometry x="3020.0000000000005" y="2600" width="140" height="30" as="geometry" />
        </mxCell>
        <mxCell id="rde9NRw8se1_-Yis98rk-329" value="&lt;b&gt;2. getStore&lt;/b&gt;" style="text;html=1;align=center;verticalAlign=middle;resizable=0;points=[];autosize=1;strokeColor=none;fillColor=none;" vertex="1" parent="1">
          <mxGeometry x="3035.0000000000005" y="2680" width="90" height="30" as="geometry" />
        </mxCell>
        <mxCell id="rde9NRw8se1_-Yis98rk-330" value="&lt;b&gt;1. getStoreLocations &lt;/b&gt;(&lt;span style=&quot;background-color: rgb(255, 255, 255);&quot;&gt;3. getAllStoresSortedByTown)&lt;/span&gt;" style="text;html=1;align=center;verticalAlign=middle;resizable=0;points=[];autosize=1;strokeColor=none;fillColor=none;rotation=15;" vertex="1" parent="1">
          <mxGeometry x="2960.0000000000005" y="2770" width="310" height="30" as="geometry" />
        </mxCell>
        <mxCell id="rde9NRw8se1_-Yis98rk-331" value="" style="shape=flexArrow;endArrow=classic;html=1;rounded=0;exitX=1;exitY=0.5;exitDx=0;exitDy=0;entryX=0.641;entryY=1;entryDx=0;entryDy=0;entryPerimeter=0;fillColor=#dae8fc;strokeColor=#6c8ebf;" edge="1" parent="1" source="rde9NRw8se1_-Yis98rk-316" target="rde9NRw8se1_-Yis98rk-313">
          <mxGeometry width="50" height="50" relative="1" as="geometry">
            <mxPoint x="2580.0000000000005" y="3030" as="sourcePoint" />
            <mxPoint x="2630.0000000000005" y="2980" as="targetPoint" />
            <Array as="points">
              <mxPoint x="2790.0000000000005" y="2990" />
            </Array>
          </mxGeometry>
        </mxCell>
        <mxCell id="rde9NRw8se1_-Yis98rk-332" value="" style="shape=flexArrow;endArrow=classic;html=1;rounded=0;exitX=0.5;exitY=1;exitDx=0;exitDy=0;fillColor=#dae8fc;strokeColor=#6c8ebf;" edge="1" parent="1" source="rde9NRw8se1_-Yis98rk-316">
          <mxGeometry width="50" height="50" relative="1" as="geometry">
            <mxPoint x="2856.7500000000005" y="3060" as="sourcePoint" />
            <mxPoint x="2467.0000000000005" y="3310" as="targetPoint" />
          </mxGeometry>
        </mxCell>
        <mxCell id="rde9NRw8se1_-Yis98rk-333" value="FE-Nextgen" style="shape=umlFrame;whiteSpace=wrap;html=1;pointerEvents=0;width=150;height=40;strokeWidth=2;fillColor=#99CCFF;fontStyle=1;fontSize=20;" vertex="1" parent="1">
          <mxGeometry x="2230.0000000000005" y="3870" width="560" height="240" as="geometry" />
        </mxCell>
        <mxCell id="rde9NRw8se1_-Yis98rk-334" value="Nextgen" style="shape=umlFrame;whiteSpace=wrap;html=1;pointerEvents=0;width=150;height=40;strokeWidth=2;fillColor=#99CCFF;fontStyle=1;fontSize=20;" vertex="1" parent="1">
          <mxGeometry x="2190.0000000000005" y="3150" width="1360" height="1000" as="geometry" />
        </mxCell>
        <mxCell id="rde9NRw8se1_-Yis98rk-335" value="&lt;span style=&quot;font-size: 18px; font-weight: 700; text-align: left;&quot;&gt;Nextgen Backoffice (MVP1)&lt;/span&gt;" style="rounded=1;whiteSpace=wrap;html=1;fillColor=#d5e8d4;strokeColor=#82b366;" vertex="1" parent="1">
          <mxGeometry x="2426.7500000000005" y="3950" width="203.25" height="120" as="geometry" />
        </mxCell>
        <mxCell id="rde9NRw8se1_-Yis98rk-336" value="" style="shape=flexArrow;endArrow=classic;html=1;rounded=0;entryX=0.4;entryY=1;entryDx=0;entryDy=0;entryPerimeter=0;exitX=0.41;exitY=0.017;exitDx=0;exitDy=0;exitPerimeter=0;fillColor=#dae8fc;strokeColor=#6c8ebf;" edge="1" parent="1" source="rde9NRw8se1_-Yis98rk-335" target="rde9NRw8se1_-Yis98rk-306">
          <mxGeometry width="50" height="50" relative="1" as="geometry">
            <mxPoint x="2510.0000000000005" y="3987" as="sourcePoint" />
            <mxPoint x="2740.0000000000005" y="3870" as="targetPoint" />
          </mxGeometry>
        </mxCell>
        <mxCell id="rde9NRw8se1_-Yis98rk-337" value="&lt;font style=&quot;font-size: 12px;&quot;&gt;&lt;span style=&quot;background-color: rgb(255, 255, 255);&quot;&gt;1.&amp;nbsp;&lt;/span&gt;&lt;span style=&quot;text-align: center; background-color: rgb(255, 255, 255);&quot;&gt;createStore&lt;/span&gt;&lt;/font&gt;&lt;div style=&quot;&quot;&gt;&lt;font style=&quot;font-size: 12px;&quot;&gt;2.&amp;nbsp;&lt;span style=&quot;background-color: rgb(255, 255, 255); text-align: center;&quot;&gt;updateStore&lt;/span&gt;&lt;/font&gt;&lt;/div&gt;&lt;div style=&quot;&quot;&gt;&lt;font style=&quot;font-size: 12px;&quot;&gt;&lt;span style=&quot;background-color: rgb(255, 255, 255);&quot;&gt;3.&amp;nbsp;&lt;/span&gt;&lt;span style=&quot;background-color: rgb(255, 255, 255); text-align: center;&quot;&gt;deleteStore&lt;/span&gt;&lt;/font&gt;&lt;/div&gt;&lt;div style=&quot;&quot;&gt;&lt;font style=&quot;font-size: 12px;&quot;&gt;&lt;span style=&quot;background-color: rgb(255, 255, 255); text-align: center;&quot;&gt;...&lt;/span&gt;&lt;/font&gt;&lt;/div&gt;" style="text;html=1;align=left;verticalAlign=middle;resizable=0;points=[];autosize=1;strokeColor=none;fillColor=none;" vertex="1" parent="1">
          <mxGeometry x="2416.7500000000005" y="3780" width="100" height="70" as="geometry" />
        </mxCell>
        <mxCell id="rde9NRw8se1_-Yis98rk-338" value="&lt;b&gt;&lt;font style=&quot;font-size: 18px;&quot;&gt;ImpexGen&lt;/font&gt;&lt;/b&gt;" style="rounded=1;whiteSpace=wrap;html=1;fillColor=#f8cecc;strokeColor=#b85450;fillStyle=cross-hatch;" vertex="1" parent="1">
          <mxGeometry x="3670.0000000000005" y="3307.5" width="160" height="120" as="geometry" />
        </mxCell>
        <mxCell id="rde9NRw8se1_-Yis98rk-339" value="" style="shape=flexArrow;endArrow=classic;html=1;rounded=0;fillColor=#dae8fc;strokeColor=#6c8ebf;entryX=0.998;entryY=0.197;entryDx=0;entryDy=0;exitX=0;exitY=0.5;exitDx=0;exitDy=0;entryPerimeter=0;" edge="1" parent="1" source="rde9NRw8se1_-Yis98rk-338" target="rde9NRw8se1_-Yis98rk-306">
          <mxGeometry width="50" height="50" relative="1" as="geometry">
            <mxPoint x="3650.0000000000005" y="3390" as="sourcePoint" />
            <mxPoint x="2750.0000000000005" y="3529.5" as="targetPoint" />
            <Array as="points" />
          </mxGeometry>
        </mxCell>
        <mxCell id="rde9NRw8se1_-Yis98rk-340" value="&lt;font style=&quot;font-size: 12px;&quot;&gt;&lt;span style=&quot;forced-color-adjust: none; color: rgb(0, 0, 0); font-family: Helvetica; font-style: normal; font-variant-ligatures: normal; font-variant-caps: normal; letter-spacing: normal; orphans: 2; text-align: center; text-indent: 0px; text-transform: none; widows: 2; word-spacing: 0px; -webkit-text-stroke-width: 0px; white-space: nowrap; background-color: rgb(251, 251, 251); text-decoration-thickness: initial; text-decoration-style: initial; text-decoration-color: initial;&quot;&gt;4.&amp;nbsp;&lt;/span&gt;&lt;span style=&quot;text-align: center; text-wrap: nowrap; background-color: rgb(255, 255, 255);&quot;&gt;getStoresByNames (called ones for all the stores received in the load message)&lt;/span&gt;&lt;/font&gt;" style="text;whiteSpace=wrap;html=1;" vertex="1" parent="1">
          <mxGeometry x="2975" y="3330.62" width="485" height="20" as="geometry" />
        </mxCell>
        <mxCell id="rde9NRw8se1_-Yis98rk-341" value="Microservices (Oldgen)" style="shape=umlFrame;whiteSpace=wrap;html=1;pointerEvents=0;width=250;height=40;strokeWidth=2;fillColor=#99CCFF;fontStyle=1;fontSize=20;" vertex="1" parent="1">
          <mxGeometry x="3630" y="3230" width="240" height="410" as="geometry" />
        </mxCell>
        <mxCell id="rde9NRw8se1_-Yis98rk-344" value="" style="shape=image;verticalLabelPosition=bottom;labelBackgroundColor=default;verticalAlign=top;aspect=fixed;imageAspect=0;image=data:image/png,iVBORw0KGgoAAAANSUhEUgAAAZAAAAGQCAMAAAC3Ycb+AAACvlBMVEX////9/vzY68263KeXyXeGwWJzt0hts0Bssz5utEJ3uU+JwmedzIDA367f7tXY68yl0Yt7u1OEwF+w1pnh79j5/PfB4K+HwWORxnDN5sDC4LB8u1SKw2jT6cbX68vl8d36/fms1ZRutEG63Kbk8dyEwGD0+fC93qrV6si12aDc7dFxtkbs9efz+fBxtUWVyHax15vQ6MPr9Ob+//56u1KUyHO32qLX68ry+O9ttEB/vVmezYK+3qv1+vOHwWSl0YrK5Lvm8t52uE2LxGqw15rS6MXu9umXyXi22qLb7dDx+O6Dv174+/ap04/J5Lvp8+J1uEyTx3Kv1pjU6cjv9ura7M/1+vJvtUOAvluiz4bC4LHk8duAvlqPxW2VyHWo0o7O58G22qH9/v3c7tKr1JLq9ON5ulG12Z/s9eWPxW602Z/W6sq93arw9+t8vFWczH6Zy3yFwGH0+fFwtUTO5sChz4bG4rV2uEz7/fp0t0qYynh4uU+u1paNxGvM5b6326N5ulCay33Z7M7y+O6by36ay3ut1ZR9vFek0Im/3qy426Sm0Yz2+vOIwmXV6smDv19ytkbL5b2t1ZXG4rbo8+BytkeOxWygzoTT6MX2+vT+/v6dzYHt9eh7u1TH47fx9+2UyHTd7tK526SfzoPN5r/i8Nn3+/X5/PjK5bzP58Pj8Nqu1Zf8/ft3uU602J6x15qp05DP58Lv9+uq05F1uEuczH+j0IiCv12Mw2miz4eSx3HE4bOz2J3r9OSn0o3J5Ll+vVj6/PiZynq83and7dN/vVrD4bLn8t+QxW7B36/n8uDp9OLg7tbo8+Ht9unZ7M2+3qy73Ke526V6ulHw9+y73aiWyXbe7dSBvlzS6MSq1JGYynmQxm+Tx3N+vFeezYHF4rTU6cey2J2Cvl3I47jg79es1JOhzoWy2Jy/363mr9GjAAASp0lEQVR4nO3d+aNW0xoH8BN12qdJpTTcVKKUJgkNpEQTRcaoTGkihYqGi0o0pzKLuEKRSpK4l0zdUpQ04Jpn7v0v7jmdc3LO2c/a71rPWms/a5++n1+9e+29nqXzvnvvZz1PXh4AAAAAAAAAAAAAAAAAAAAAAAAAAAAAAAAAAAAAAAAAAAAAAAAAAAAAAAAAAAAAAAAAAAAAAAAAAAAAAAAAeFDlmGOrVsuvHqWooEbNWrXrSE88TMfVrZfmUpRV//gG0rMPTcMTGkmtRrHGTaRDEJSmf5NdjiLNTpSOQjCaN5NejGJVW0hHIggtT5JeiCNanSwdjACc0lp6Gcqq2kY6HtKatJJeg/LqHeW/gU+VXoCY6m2lYyKpnXT4KUfxitSWjj3tNOm4SGkuHXmF9h2kIyOjYyfpyKvUlw6NjM7ScVc7XTo2ErpIRz3JGdLRSV/XM6WDnuQs6fCk72zpmCfrJh2ftHXvIR3yZD2lA5S2c6Qjnsu50hFKVwPpeOfUqZd0jFJ1nnS8c+stHaM09ZGOto7zpaOUnip9pYOt4wLpMKXnQulY6+knHae09JeOtKYzu0pHKiUDpCOta6B0pNIxSDrO2lpdJB2rVFwsHWd9taRjlYam0lE2cRSkmA7Olw6yiUbS4fJviHSMzVwiHS/fLpWOsKGhLaUj5tll0hE2dbl0xPy6Qjq+5q6UjplXAWw7MFVVOmY+hZc5quEq6aj5c/Uw6eByXCMdNn+ulY4tz3DpuPkyQjqyTPkNpSPnib+dayOvu76ZxzyvG6Qj58eNnsI18qYGowqHH3zz6PaezhCNkY6dD6PG+gnWuCpHTjG+lp9TRLcIxs2bW72EqvqEcie5zctJKuUmnol+SmYMqnAaT3c6kyrf29zbvQSqduw8d3g5T1TpNkzX8RKmO+MnmuxnG9CUq9OPmVd3egnTVOJMN3g5U3RX6iHz6m4vQZo2nTiVn3+LUTQi9aB51HKGlxjNpM41/e9ezhU1SztoPt3jJ0b3kCe718/JovtSDppHHTyFaBZ5Nk+/s6LZo1IOmz++9tvSmYVzPJ0tGpdy2Ly531eEbiJP5+tfSNRjbsqB86WnrwilvCDRAykHzhObVMVJD86bN2e+6r+aLcj8BWcvXLR4pMXVRJWidtMS/kPxOc0Pf4+O6qZ4imuyIEtvLPlOfsjiV9iy1KLm0WLu7JeXyRpcQa6qwYI8XOYD47hXFEWP+I1VGh7lzn3ppWWHafEY8RH9BVlU7hNth3IvqhIkMj7OnPoTFX71U7tKtBdkToWP9Ge/TT7JT5TS8yRz4u1iI/WOf0h3Qdo/VfEzK59mXlf0jPsYpanrKt60n40P9Vy8XKbugswjPvUw78KyXpZmEWvS1Z+kxvpH7HO6C0L+WuVWvznOYXhS14aVqljwPDnY6tgHNRek72Dyc8yKj5lOZHyBM+Me9HrkvRj7pOaCEO8VDxvOubpMl6V5iTPfAlVR0HgJOssFYa5I+zUuYiOC1YJCmWwefwSjuSCz16qGjP8V1JHZsjQvc2b7inK4+Mty3S/1dcoxX+VcYlbL0qzfwJhrwh/o+GYf3QXZqB70AcY1ZjWR8TXGVDeph7sk/mndBamR8K6PVbnrdcvQiNjMmOi96uFWEreY2o9O3lCP22YL4zrPtIyNiJnm8xy6RD3cm8Tn9R8u9lEPfJr5dUbRarvYSODMU3EDUmQr9XmDx+8L1UMfy7jSVtlr/PKW+SzPVg7W4W3yAJMXVP9crxz9X+aXGj1tHaCUvWM+R/UXyBWK+ihGr3AbKcuHs95pvmQfozQNNv+qLFDu0F+oOsTsnfoWZV8QThn6jJWlecN8hsq9ru8qDzHNOlH+WuWkcr3sIEyp2WY+v7dVY72nPsY4Deh9xTl6MfYwbKAyvUPF+Jp8VDFU0t5287ysFYqzcB4zZqgszQTz2alu0UcnHcRIlOuiOA9n/8pmJ8FKwwfGc5vxIT3SxsSjOJmLinsdzq6SjxyFy7vt5nOL7xU8LMc+H86CtB9Pn4pTu7bijtNALZliPLOx9Ej/znEYK7d3B32HyPgdEl3sKmR+kU85ktGVDSfnqpfJS7Z+kL7sJ8wvO9rpKmY+fWw+r1X0SLtyHcfMft9NHjbe/LqjfMVXX1AYSYH0/2i583S42xE+IY/j5M4lvL8Jxevms+pbhRpIIymYuyD0335W9ahP3UXOj5WMEjPxtNEi9XMfyN6wQ7/O4OxTaOwscp5wUv27UwOdq3EgfwcV+SDzFca1h16W5iJGv/rbqYEm6+Q88heELjXKqYE2yV3wfOAkcTSnBiJy3eMs9hiSj+LVz5UTbHcYPuf2MCZE/ubdq3WoxYKQrzP0zlrBsJDL0nByasiHpnrFnGx24R5DHUq/Kc5hq8MAOvYsZz5UUZcxeofaLMhS6lDlu8lEp7iMoUstOd3wRlIjaW4UtdqnTj0Z/IwxgYR3a9JYibLUpr0lmttKrBaELCXE60DaxGUU3bmSNZl9xEifax5rV8mBer/Eq9Q5NsyyNFU5c9nSkhhpmebBdgtCPSBgpTEGWpaGV2KGukPTbiVttyBUy3TW12ChEPvrXcOayX5ipJN0D7YsPkPlujEykosE2F9vN28m1G8d7fowlgtyOnHwAd40oj1Og+nA4OWseeQT+/XO1z7ackHqEwc3Z00jilq7Dae9hHS2JI8TQ+kXp7atl0W8zOjO7TlDlDqQxHoKFNGNID7SPtp2QajaPhqvYUhbwkpk3MWcBvF6e/1B7aNtF+Ra4uhzONMo8qrbiNo5kTsLok6FwZtU2wWh/vDzi2l1cBtTK8oifLlsi4/1vv7RtgtScCh+NOsB6WHXOw6qhS+4c+hLJK1dqH+4dRFM4hm8Rbf3mx2Hla0hVe1NC1X0wiCe1gtCfIVZFH0O5qkvs6xOoS+J0QzqcVgvyMPxo5/ibJMu8ZXbuLK1Zs+A+Jmz1iCPyHpBiPyKlf8xn0apQN4dMnJHS42Oj3aoh/7h1gtC7TPlFoksNDSMzFLu45+ILN7ewuBw6wV5izg8XrhOXxhJWhYz+Dw+mskbCesFqUHcXts0yzrecWhZ1nCK/pQ4NT7c1waHWy/IUKKSlk3D3iASS21aDBH7QkySta0XZBiRUsrZJ1KKuq9KHVE2SRuRHWCyiZ9u6GLwN6c68aTAZkGCSIafZXH9lgtCv8o+S38A5wsSQg3Zbyyu/+74cFMNDqeLHxqUvWlPvAu3WhBVZYI02UyASFR+yODwatT1HDJ4xTSNuHGw+VIPYtMhK/unBPEry+g3AtVW+xGD4w8SX8JWDXpC6ND6rcX1E9Upje77qS1+Sw2Opx5ucqpnHXGh6+gyfGlx/cSjk7kmL7VbxbMPV5ic/ztiPuxOFkUWEQOmjd34odAL8eGqGNXliLXfvMioGBlx/lE7zKZQ3gk+Imxok8X1f0+MZ7b1skKpvavNnjwTf2GW5KpWkCiElki8/ORiVGaU4a+2zmV/uX71g9nB78RPr7k1RSGEp4smv2oqyicaSZi2HKlx6uSSI8cY74cgXrruMx2jnBD27jATxot9HB+vn/EgG37c3e/+FV90LjA9sNPk+Ol/Mj59GUGU2mCVhi71c3y8zdzcQXPUtjaDHIu4MN6q32IxA+KFCDt30Nx7xNmt7gsTSpqn6BeLGSwgxmN3ojRGVWC0eKUeRS/6jrWWryxmELuPKNTEJiQmehB5clcavNKPGdbLe7C1TOJPYTlRQ30yozwHC/V/Q1ubAUMpwjjQYg7diPGsniYZoGrNt7MZkPiJIqK78e/Nv1DvmGz6fZvYS5z7e4vxPvAcZ33z+JO4jBiOU1KIgfrRO9jmwUkfz2HWZzENsgcdqzGUMar0YluL8cjXZUKYLRqLUF1Wj7MIi7ZOsY7FefwOuUWC2vfJaN9SgtrUlmf1CFwTdQuU9yt/vB/9RtjQVex51KOGs/gXp43K2NHfABzTY67nEBviVOouRhVjr1KDHxlN5H4ni5QmupKnHF7lmSKLqeH4W050kS2L+H95D670G19zl3OnQqZfjvL9T+QOag6sZsrFwms1uX6a07n8xo+NFiJlkeq2qyuhI6YYdo4vnTJejR0cHVTZtLwP+bdTxIs2ebxqbIXIjh6/s4OjgS67wGj1V4L8CS1Ou8xVRUPI4fh/P3LrR57xYu5wnRJaxkqi2tXqmELdM+dVIboRO0Lfw/HTG6j3niHozn25Q+/zsNkJlGgDsW8qj1+vJfrBZ1Ct5O74QctvSQ7HLzuSjK64kKu/khpZKz0IXesxp0T/E8m7nh2jJIrW29dxx6PSL0PBavhQ6DEiYa5QS4uXw0pv0pfOzwwIYRubEqcnShHyviAvbxujJWoO1Iv0Iuz7HiKDPyDsx6X96fGs0iIpk8hfdIa7GMrKp38hBGMBc15UGZoijJZWSQ4qeoTzHy+HsIktyRruH5kJigHv40aK0vdSxVm0SwVXFH5vyduYM1PWTzfZlptDvTMU5zApsFIe2aknLD2ZU/tGNeA+V9nX1SaqTsFOJ1Z0DQ0KtxRxdJVqxBGG23AUBii/fvl3oEQyangMKimUM1tZKKSjTfpaqT+UF8x+Khq95iWArrGrFpL984pZ7dooMky9+2869/lCtIFsURqeN7gTbKoeswunx+Bf7qXb3x5Wiz0qtZ0hRA3Zb95+Vw/a5gV23MjKdUfotBSlkX3FgnQ3d4obknoC/szdSzOzRcKoFps817mOmz/sdJqaSaNOP5aznbF+YoWe/rw2G0XOcRszr/iPTp9OHPe5Tab3JCOTH20M5v+iLiD2GoVLv+VERURt47LGv6vfPCGKln2eo+beBezrjA64i1YKJlZnT/TWHEOvGa77jP/BnNlr/ARYuoVvwFiNl4vlThnYc3nuBJHG26liWuXx/x2rElfCtd4iF5TaSVNRnVmd1S0AVj2wM+G+4whmR7bDbrENUOrYb3wi3T6Ncwed3Pu82eUzXTqtajy69rqGWsdblQjQWfDA1LSYbo5v9jKmjxl0308nb393yE37t7//dZ3N2kno0y+zWQ9ym1Hg1tlM+E/fV/ecQVeMuE50Ukbg/rSZ8q6ke3Z7e0x+PMct9HpxvrSx2L4eRZMSnmtZ62O1HNEOj5fm02q7aRNVlh1hNX4vg2o5ngmW6dKL/ZS2H8NNHiulypAJH7u9YYll1IZQW4+wW5iVUuSQZQE7X7aU872th/ivo0rNc31NKfrUevaN3PYbGM5sYF/GtLCa3hpyUB3uBkWyIUMDbv5FWYG1hTa0hv/+54jH9rv5cu/f2/5a6HLxWeKk9tXI3fbpHR3HWZWsPqKOg6CIGukkDL/+ZFcpof8v7G305SWkKmWERbPfcnbs52cJrhsyxdFVtCJa8mRNZ0exiPLrsjKbW061ee9RQa7XmVkw3l04opoHHjU8+/PzXO6unq1K0c+U4x1GJIp2LSLr+FDW7pt3p9NzR1N9xik104e6jUrUenGfnO/Lq/y+83bnW0bDKO1uz0Nln+o9/xx44jaqgGZeXvcWl5w+0y4VWOH8lAPnja/KPmMvmLNp9c4buw0asW7dupeO6fbi7o11v13q5n6DQHR/zyhvRTJSNUyxgTeL7B+xBoDogplZc6WD6cB86SA65auOTIpU+7Yzaqx0PG0F0bveIW5ZmmDkzhTOGIvE/xBQXXez7RTpkFqZkclUxWRbpYNqI/QSMxy93Ne+Sk34JWY4+PuPxWWgxAyHj4J9qRggHTlPHpIOLJe7RKTApNUPzzGi63olYZ/IKGGon5zvIIyWDi5HH+moebTWOvM8fSF1w3Nvp3R4zWWoxAwHv8uTkOTiK9nnvDKyZwWBdcNz71vpEJtZJB0v7zZLh9hIva7S8fLvv9JBNkF16q1sRm2QjrK+ELvhuWe5az9NScUaK5Gl0nHWVVc6UinhV5JO1/JAu+G594R0qPX8TzpOqeloVZYmLT2lw5SiRdLB1hFuNzwP2PXv03OWdIxS1UU63LmRLZMrr8el452LopFfpbVXOuA5zMh0iRmOutIhT5btEjMcg4NOZGwtHR4BC6WDniTzJWY4lklHXS1LrUHc+UQ67ErT9GqVVzq7pQOv4qP2Ziaw27n55a9gcPCcFN1zbbV0VCQtkI5+3BfSMZF1q3T8K+ojHRFpKxzULXXnV58tADJizHfSq/CXrcqG0keV2t4KKpl5K2uNvryZ+Ecr6cWIohoDj7oHvAn2bhL+VzL/gN+WPtnTvfYusdXoNGBFJd62xteiaa30HzgWNLvr5WekZx6uzyb8Nmtju9RsXL1iX0fpOQMAAAAAAAAAAAAAAAAAAAAAAAAAAAAAAAAAAAAAAAAAAAAAAAAAAAAAAAAAAAAAAAAAAAAAAAAAAAAAAABUWv8HF/WkH1Nv95EAAAAASUVORK5CYII=;" vertex="1" parent="1">
          <mxGeometry x="2366.7500000000005" y="3320" width="60" height="60" as="geometry" />
        </mxCell>
        <mxCell id="rde9NRw8se1_-Yis98rk-345" value="" style="shape=cylinder;whiteSpace=wrap;html=1;boundedLbl=1;backgroundOutline=1;" vertex="1" parent="1">
          <mxGeometry x="2690.0000000000005" y="3560" width="40" height="50" as="geometry" />
        </mxCell>
        <mxCell id="rde9NRw8se1_-Yis98rk-348" value="" style="shape=flexArrow;endArrow=classic;html=1;rounded=0;entryX=0.006;entryY=0.646;entryDx=0;entryDy=0;entryPerimeter=0;fillColor=#dae8fc;strokeColor=#6c8ebf;exitX=1;exitY=0.784;exitDx=0;exitDy=0;exitPerimeter=0;" edge="1" parent="1" target="rde9NRw8se1_-Yis98rk-349" source="rde9NRw8se1_-Yis98rk-306">
          <mxGeometry width="50" height="50" relative="1" as="geometry">
            <mxPoint x="2800" y="3570" as="sourcePoint" />
            <mxPoint x="3120.0000000000005" y="3712.5" as="targetPoint" />
            <Array as="points" />
          </mxGeometry>
        </mxCell>
        <mxCell id="rde9NRw8se1_-Yis98rk-349" value="&lt;b&gt;&lt;font style=&quot;font-size: 17px;&quot;&gt;yCatalog&lt;/font&gt;&lt;/b&gt;" style="rounded=1;whiteSpace=wrap;html=1;fillColor=#f8cecc;strokeColor=#b85450;fillStyle=cross-hatch;sketch=1;curveFitting=1;jiggle=2;" vertex="1" parent="1">
          <mxGeometry x="3670.0000000000005" y="3479.19" width="160" height="120" as="geometry" />
        </mxCell>
        <mxCell id="rde9NRw8se1_-Yis98rk-351" value="&lt;div style=&quot;text-align: left;&quot;&gt;&lt;br&gt;&lt;/div&gt;" style="shape=cylinder3;whiteSpace=wrap;html=1;boundedLbl=1;backgroundOutline=1;size=15;rotation=-90;fillColor=#ffe6cc;fillStyle=solid;strokeColor=#d79b00;" vertex="1" parent="1">
          <mxGeometry x="3150.0000000000005" y="3479.19" width="41.16" height="77.15" as="geometry" />
        </mxCell>
        <mxCell id="rde9NRw8se1_-Yis98rk-352" value="" style="shape=flexArrow;endArrow=classic;html=1;rounded=0;exitX=-0.012;exitY=0.329;exitDx=0;exitDy=0;exitPerimeter=0;entryX=0.5;entryY=1;entryDx=0;entryDy=0;entryPerimeter=0;fillColor=#e1d5e7;strokeColor=#9673a6;" edge="1" parent="1" source="rde9NRw8se1_-Yis98rk-349" target="rde9NRw8se1_-Yis98rk-351">
          <mxGeometry width="50" height="50" relative="1" as="geometry">
            <mxPoint x="3060.0000000000005" y="3630" as="sourcePoint" />
            <mxPoint x="3110.0000000000005" y="3580" as="targetPoint" />
          </mxGeometry>
        </mxCell>
        <mxCell id="rde9NRw8se1_-Yis98rk-359" value="consume loadStoresMessage" style="text;html=1;align=center;verticalAlign=middle;resizable=0;points=[];autosize=1;strokeColor=none;fillColor=none;" vertex="1" parent="1">
          <mxGeometry x="2855.0000000000005" y="3481.16" width="180" height="30" as="geometry" />
        </mxCell>
        <mxCell id="rde9NRw8se1_-Yis98rk-360" value="produce loadStoresMessage" style="text;html=1;align=center;verticalAlign=middle;resizable=0;points=[];autosize=1;strokeColor=none;fillColor=none;" vertex="1" parent="1">
          <mxGeometry x="3310.0000000000005" y="3481.16" width="180" height="30" as="geometry" />
        </mxCell>
        <mxCell id="rde9NRw8se1_-Yis98rk-361" value="&lt;span style=&quot;background-color: rgb(255, 255, 255);&quot;&gt;getStoreByName (called for each store in the load message))&lt;/span&gt;" style="text;html=1;align=center;verticalAlign=middle;resizable=0;points=[];autosize=1;strokeColor=none;fillColor=none;" vertex="1" parent="1">
          <mxGeometry x="2995.5800000000004" y="3563.7499999999995" width="350" height="30" as="geometry" />
        </mxCell>
        <mxCell id="rde9NRw8se1_-Yis98rk-366" value="" style="shape=flexArrow;endArrow=classic;html=1;rounded=0;exitX=0;exitY=0.5;exitDx=0;exitDy=0;fillColor=#dae8fc;strokeColor=#6c8ebf;" edge="1" parent="1">
          <mxGeometry width="50" height="50" relative="1" as="geometry">
            <mxPoint x="310" y="2314.17" as="sourcePoint" />
            <mxPoint x="440" y="2314.17" as="targetPoint" />
          </mxGeometry>
        </mxCell>
        <mxCell id="rde9NRw8se1_-Yis98rk-367" value="" style="shape=flexArrow;endArrow=classic;html=1;rounded=0;exitX=0;exitY=0.5;exitDx=0;exitDy=0;fillColor=#e1d5e7;strokeColor=#9673a6;" edge="1" parent="1">
          <mxGeometry width="50" height="50" relative="1" as="geometry">
            <mxPoint x="310" y="2394.17" as="sourcePoint" />
            <mxPoint x="440" y="2394.17" as="targetPoint" />
          </mxGeometry>
        </mxCell>
        <mxCell id="rde9NRw8se1_-Yis98rk-368" value="API Call&amp;nbsp;&lt;div&gt;(synch)&lt;/div&gt;" style="text;html=1;align=center;verticalAlign=middle;resizable=0;points=[];autosize=1;strokeColor=none;fillColor=none;fontStyle=1;fontSize=20;" vertex="1" parent="1">
          <mxGeometry x="120" y="2285" width="100" height="60" as="geometry" />
        </mxCell>
        <mxCell id="rde9NRw8se1_-Yis98rk-369" value="Event-driven&lt;div&gt;communication&amp;nbsp;&lt;/div&gt;&lt;div&gt;(asynch)&lt;/div&gt;" style="text;html=1;align=center;verticalAlign=middle;resizable=0;points=[];autosize=1;strokeColor=none;fillColor=none;fontStyle=1;fontSize=20;" vertex="1" parent="1">
          <mxGeometry x="90" y="2350" width="160" height="90" as="geometry" />
        </mxCell>
        <mxCell id="rde9NRw8se1_-Yis98rk-370" value="" style="shape=flexArrow;endArrow=classic;html=1;rounded=0;exitX=0.995;exitY=0.355;exitDx=0;exitDy=0;fillColor=#dae8fc;strokeColor=#6c8ebf;entryX=0;entryY=0.348;entryDx=0;entryDy=0;exitPerimeter=0;entryPerimeter=0;" edge="1" parent="1" source="rde9NRw8se1_-Yis98rk-101" target="rde9NRw8se1_-Yis98rk-112">
          <mxGeometry width="50" height="50" relative="1" as="geometry">
            <mxPoint x="733.2500000000007" y="3391.129999999999" as="sourcePoint" />
            <mxPoint x="963.1400000000001" y="3547.6099999999997" as="targetPoint" />
          </mxGeometry>
        </mxCell>
        <mxCell id="rde9NRw8se1_-Yis98rk-375" value="&lt;div style=&quot;text-align: left;&quot;&gt;&lt;br&gt;&lt;/div&gt;" style="shape=cylinder3;whiteSpace=wrap;html=1;boundedLbl=1;backgroundOutline=1;size=15;rotation=0;fillColor=#ffe6cc;fillStyle=solid;strokeColor=#d79b00;" vertex="1" parent="1">
          <mxGeometry x="777.0900000000003" y="3109.9999999999995" width="41.16" height="77.15" as="geometry" />
        </mxCell>
        <mxCell id="rde9NRw8se1_-Yis98rk-377" value="" style="shape=flexArrow;endArrow=classic;html=1;rounded=0;exitX=0.5;exitY=0;exitDx=0;exitDy=0;entryX=1;entryY=0.75;entryDx=0;entryDy=0;fillColor=#e1d5e7;strokeColor=#9673a6;exitPerimeter=0;" edge="1" parent="1" source="rde9NRw8se1_-Yis98rk-114" target="rde9NRw8se1_-Yis98rk-101">
          <mxGeometry width="50" height="50" relative="1" as="geometry">
            <mxPoint x="870.5" y="3518.12" as="sourcePoint" />
            <mxPoint x="649.5" y="3518.12" as="targetPoint" />
          </mxGeometry>
        </mxCell>
        <mxCell id="rde9NRw8se1_-Yis98rk-378" value="consume loadStoresMessage" style="text;html=1;align=center;verticalAlign=middle;resizable=0;points=[];autosize=1;strokeColor=none;fillColor=none;" vertex="1" parent="1">
          <mxGeometry x="733.2500000000005" y="3410.62" width="180" height="30" as="geometry" />
        </mxCell>
        <mxCell id="rde9NRw8se1_-Yis98rk-379" value="" style="shape=flexArrow;endArrow=classic;html=1;rounded=0;entryX=0.5;entryY=1;entryDx=0;entryDy=0;fillColor=#e1d5e7;strokeColor=#9673a6;entryPerimeter=0;" edge="1" parent="1" target="rde9NRw8se1_-Yis98rk-375">
          <mxGeometry width="50" height="50" relative="1" as="geometry">
            <mxPoint x="680" y="3370" as="sourcePoint" />
            <mxPoint x="690" y="3451" as="targetPoint" />
            <Array as="points">
              <mxPoint x="800" y="3370" />
            </Array>
          </mxGeometry>
        </mxCell>
        <mxCell id="rde9NRw8se1_-Yis98rk-381" value="" style="endArrow=none;dashed=1;html=1;dashPattern=1 3;strokeWidth=3;rounded=0;fillColor=#e1d5e7;strokeColor=#9673a6;exitX=0.5;exitY=0;exitDx=0;exitDy=0;exitPerimeter=0;entryX=0.75;entryY=1;entryDx=0;entryDy=0;" edge="1" parent="1" source="rde9NRw8se1_-Yis98rk-375" target="rde9NRw8se1_-Yis98rk-76">
          <mxGeometry width="50" height="50" relative="1" as="geometry">
            <mxPoint x="920" y="3130" as="sourcePoint" />
            <mxPoint x="970" y="3080" as="targetPoint" />
          </mxGeometry>
        </mxCell>
        <mxCell id="rde9NRw8se1_-Yis98rk-383" value="&lt;div style=&quot;text-align: left;&quot;&gt;&lt;br&gt;&lt;/div&gt;" style="shape=cylinder3;whiteSpace=wrap;html=1;boundedLbl=1;backgroundOutline=1;size=15;rotation=0;fillColor=#ffe6cc;fillStyle=solid;strokeColor=#d79b00;" vertex="1" parent="1">
          <mxGeometry x="2820.0000000000005" y="2902.85" width="41.16" height="77.15" as="geometry" />
        </mxCell>
        <mxCell id="rde9NRw8se1_-Yis98rk-384" value="" style="endArrow=none;dashed=1;html=1;dashPattern=1 3;strokeWidth=3;rounded=0;fillColor=#e1d5e7;strokeColor=#9673a6;exitX=0.5;exitY=0;exitDx=0;exitDy=0;exitPerimeter=0;entryX=0.793;entryY=1;entryDx=0;entryDy=0;entryPerimeter=0;" edge="1" parent="1" source="rde9NRw8se1_-Yis98rk-383" target="rde9NRw8se1_-Yis98rk-313">
          <mxGeometry width="50" height="50" relative="1" as="geometry">
            <mxPoint x="2961" y="2965" as="sourcePoint" />
            <mxPoint x="2960" y="2875" as="targetPoint" />
          </mxGeometry>
        </mxCell>
        <mxCell id="rde9NRw8se1_-Yis98rk-385" value="" style="shape=flexArrow;endArrow=classic;html=1;rounded=0;entryX=0.5;entryY=1;entryDx=0;entryDy=0;fillColor=#e1d5e7;strokeColor=#9673a6;entryPerimeter=0;exitX=0;exitY=0.25;exitDx=0;exitDy=0;" edge="1" parent="1" source="rde9NRw8se1_-Yis98rk-338" target="rde9NRw8se1_-Yis98rk-383">
          <mxGeometry width="50" height="50" relative="1" as="geometry">
            <mxPoint x="2880" y="3093" as="sourcePoint" />
            <mxPoint x="2998" y="2910" as="targetPoint" />
            <Array as="points">
              <mxPoint x="3580" y="3338" />
              <mxPoint x="3580" y="3080" />
              <mxPoint x="2841" y="3080" />
            </Array>
          </mxGeometry>
        </mxCell>
        <mxCell id="rde9NRw8se1_-Yis98rk-386" value="" style="shape=flexArrow;endArrow=classic;html=1;rounded=0;exitX=0.5;exitY=0;exitDx=0;exitDy=0;exitPerimeter=0;entryX=1;entryY=0.647;entryDx=0;entryDy=0;entryPerimeter=0;fillColor=#e1d5e7;strokeColor=#9673a6;" edge="1" parent="1" source="rde9NRw8se1_-Yis98rk-351" target="rde9NRw8se1_-Yis98rk-306">
          <mxGeometry width="50" height="50" relative="1" as="geometry">
            <mxPoint x="3249" y="3581" as="sourcePoint" />
            <mxPoint x="2790" y="3580" as="targetPoint" />
          </mxGeometry>
        </mxCell>
        <mxCell id="rde9NRw8se1_-Yis98rk-387" value="&lt;div style=&quot;text-align: left;&quot;&gt;&lt;br&gt;&lt;/div&gt;" style="shape=cylinder3;whiteSpace=wrap;html=1;boundedLbl=1;backgroundOutline=1;size=15;rotation=-90;fillColor=#ffe6cc;fillStyle=solid;strokeColor=#d79b00;direction=west;" vertex="1" parent="1">
          <mxGeometry x="3150.0000000000005" y="3370" width="41.16" height="77.15" as="geometry" />
        </mxCell>
        <mxCell id="rde9NRw8se1_-Yis98rk-388" value="" style="shape=flexArrow;endArrow=classic;html=1;rounded=0;exitX=1;exitY=0.313;exitDx=0;exitDy=0;exitPerimeter=0;entryX=0.5;entryY=1;entryDx=0;entryDy=0;entryPerimeter=0;fillColor=#e1d5e7;strokeColor=#9673a6;" edge="1" parent="1" source="rde9NRw8se1_-Yis98rk-306" target="rde9NRw8se1_-Yis98rk-387">
          <mxGeometry width="50" height="50" relative="1" as="geometry">
            <mxPoint x="3142" y="3528" as="sourcePoint" />
            <mxPoint x="2760" y="3526" as="targetPoint" />
          </mxGeometry>
        </mxCell>
        <mxCell id="rde9NRw8se1_-Yis98rk-389" value="" style="shape=flexArrow;endArrow=classic;html=1;rounded=0;exitX=0.5;exitY=0;exitDx=0;exitDy=0;exitPerimeter=0;entryX=0;entryY=0.842;entryDx=0;entryDy=0;entryPerimeter=0;fillColor=#e1d5e7;strokeColor=#9673a6;" edge="1" parent="1" source="rde9NRw8se1_-Yis98rk-387" target="rde9NRw8se1_-Yis98rk-338">
          <mxGeometry width="50" height="50" relative="1" as="geometry">
            <mxPoint x="3125" y="3459" as="sourcePoint" />
            <mxPoint x="3507" y="3460" as="targetPoint" />
          </mxGeometry>
        </mxCell>
        <mxCell id="rde9NRw8se1_-Yis98rk-390" value="consume loadStoresMessage" style="text;html=1;align=center;verticalAlign=middle;resizable=0;points=[];autosize=1;strokeColor=none;fillColor=none;" vertex="1" parent="1">
          <mxGeometry x="3320.0000000000005" y="3410.62" width="180" height="30" as="geometry" />
        </mxCell>
        <mxCell id="rde9NRw8se1_-Yis98rk-391" value="produce loadStoresMessage&amp;nbsp;&lt;div&gt;(a replica of the one received from the yCatalog)&lt;/div&gt;" style="text;html=1;align=center;verticalAlign=middle;resizable=0;points=[];autosize=1;strokeColor=none;fillColor=none;" vertex="1" parent="1">
          <mxGeometry x="2815.0000000000005" y="3410" width="280" height="40" as="geometry" />
        </mxCell>
        <mxCell id="rde9NRw8se1_-Yis98rk-392" value="&lt;div style=&quot;text-align: left;&quot;&gt;&lt;br&gt;&lt;/div&gt;" style="shape=cylinder3;whiteSpace=wrap;html=1;boundedLbl=1;backgroundOutline=1;size=15;rotation=-90;fillColor=#ffe6cc;fillStyle=solid;strokeColor=#d79b00;direction=west;" vertex="1" parent="1">
          <mxGeometry x="5146.43" y="3331.43" width="41.16" height="77.15" as="geometry" />
        </mxCell>
        <mxCell id="rde9NRw8se1_-Yis98rk-393" value="" style="shape=flexArrow;endArrow=classic;html=1;rounded=0;exitX=1;exitY=0.313;exitDx=0;exitDy=0;exitPerimeter=0;entryX=0.5;entryY=1;entryDx=0;entryDy=0;entryPerimeter=0;fillColor=#e1d5e7;strokeColor=#9673a6;" edge="1" parent="1" target="rde9NRw8se1_-Yis98rk-392">
          <mxGeometry width="50" height="50" relative="1" as="geometry">
            <mxPoint x="4746.43" y="3369.43" as="sourcePoint" />
            <mxPoint x="4756.43" y="3487.43" as="targetPoint" />
          </mxGeometry>
        </mxCell>
        <mxCell id="rde9NRw8se1_-Yis98rk-394" value="" style="shape=flexArrow;endArrow=classic;html=1;rounded=0;exitX=0.5;exitY=0;exitDx=0;exitDy=0;exitPerimeter=0;entryX=0;entryY=0.842;entryDx=0;entryDy=0;entryPerimeter=0;fillColor=#e1d5e7;strokeColor=#9673a6;" edge="1" parent="1" source="rde9NRw8se1_-Yis98rk-392">
          <mxGeometry width="50" height="50" relative="1" as="geometry">
            <mxPoint x="5121.43" y="3420.43" as="sourcePoint" />
            <mxPoint x="5666.43" y="3370.43" as="targetPoint" />
          </mxGeometry>
        </mxCell>
        <mxCell id="rde9NRw8se1_-Yis98rk-395" value="consume loadStoresMessage" style="text;html=1;align=center;verticalAlign=middle;resizable=0;points=[];autosize=1;strokeColor=none;fillColor=none;" vertex="1" parent="1">
          <mxGeometry x="5316.43" y="3339.9999999999995" width="180" height="30" as="geometry" />
        </mxCell>
        <mxCell id="rde9NRw8se1_-Yis98rk-396" value="produce loadStoresMessage&amp;nbsp;&lt;div&gt;(a replica of the one received from the yCatalog)&lt;/div&gt;" style="text;html=1;align=center;verticalAlign=middle;resizable=0;points=[];autosize=1;strokeColor=none;fillColor=none;" vertex="1" parent="1">
          <mxGeometry x="4793.530000000001" y="3327.5" width="280" height="40" as="geometry" />
        </mxCell>
        <mxCell id="rde9NRw8se1_-Yis98rk-397" value="&lt;div style=&quot;text-align: left;&quot;&gt;&lt;br&gt;&lt;/div&gt;" style="shape=cylinder3;whiteSpace=wrap;html=1;boundedLbl=1;backgroundOutline=1;size=15;rotation=0;fillColor=#ffe6cc;fillStyle=solid;strokeColor=#d79b00;" vertex="1" parent="1">
          <mxGeometry x="4816.43" y="2922.85" width="41.16" height="77.15" as="geometry" />
        </mxCell>
        <mxCell id="rde9NRw8se1_-Yis98rk-398" value="" style="endArrow=none;dashed=1;html=1;dashPattern=1 3;strokeWidth=3;rounded=0;fillColor=#e1d5e7;strokeColor=#9673a6;exitX=0.5;exitY=0;exitDx=0;exitDy=0;exitPerimeter=0;entryX=0.793;entryY=1;entryDx=0;entryDy=0;entryPerimeter=0;" edge="1" parent="1" source="rde9NRw8se1_-Yis98rk-397">
          <mxGeometry width="50" height="50" relative="1" as="geometry">
            <mxPoint x="4957.43" y="2985" as="sourcePoint" />
            <mxPoint x="4837.43" y="2810" as="targetPoint" />
          </mxGeometry>
        </mxCell>
        <mxCell id="rde9NRw8se1_-Yis98rk-399" value="" style="shape=flexArrow;endArrow=classic;html=1;rounded=0;entryX=0.5;entryY=1;entryDx=0;entryDy=0;fillColor=#e1d5e7;strokeColor=#9673a6;entryPerimeter=0;exitX=0.004;exitY=0.151;exitDx=0;exitDy=0;exitPerimeter=0;" edge="1" parent="1" target="rde9NRw8se1_-Yis98rk-397" source="gKmI6yvuFESalika0xIr-33">
          <mxGeometry width="50" height="50" relative="1" as="geometry">
            <mxPoint x="5666.43" y="3358" as="sourcePoint" />
            <mxPoint x="4994.43" y="2930" as="targetPoint" />
            <Array as="points">
              <mxPoint x="5576" y="3346" />
              <mxPoint x="5576.43" y="3100" />
              <mxPoint x="4837.43" y="3100" />
            </Array>
          </mxGeometry>
        </mxCell>
      </root>
    </mxGraphModel>
  </diagram>
</mxfile>
